<?xml version="1.0" standalone="no"?>
<!DOCTYPE svg PUBLIC "-//W3C//DTD SVG 20010904//EN"
 "http://www.w3.org/TR/2001/REC-SVG-20010904/DTD/svg10.dtd">
<svg version="1.0" xmlns="http://www.w3.org/2000/svg"
 width="444.000000pt" height="84.000000pt" viewBox="0 0 444.000000 84.000000"
 preserveAspectRatio="xMidYMid meet">

<g transform="translate(0.000000,84.000000) scale(0.100000,-0.100000)"
fill="#000000" stroke="none">
<path d="M45 790 c-4 -6 14 -36 39 -67 58 -70 59 -94 5 -144 l-41 -38 37 -45
c30 -37 44 -46 70 -46 77 0 115 -32 115 -98 0 -18 15 -42 41 -70 l41 -43 22
20 c32 30 89 51 139 51 79 0 186 -41 245 -93 41 -38 44 -6 5 58 -20 33 -52 94
-72 135 -31 64 -36 86 -38 154 -2 78 -2 80 -44 122 l-41 42 -45 -20 c-60 -26
-139 -33 -215 -18 -66 13 -169 55 -217 89 -33 24 -37 25 -46 11z m369 -224
l79 -12 -59 -26 c-77 -34 -129 -48 -181 -48 -44 0 -52 7 -32 27 11 11 8 74 -5
105 -6 13 3 12 56 -9 35 -14 99 -31 142 -37z m175 -13 c-50 -84 -110 -161
-164 -212 l-58 -55 -27 60 c-16 35 -41 71 -61 86 l-33 27 25 5 c102 21 136 33
224 76 55 27 104 50 108 50 5 0 -1 -17 -14 -37z m47 -53 c8 -35 34 -101 58
-147 24 -45 41 -83 39 -83 -2 0 -25 11 -51 24 -60 30 -154 50 -200 41 -29 -5
-34 -4 -25 7 5 7 30 38 55 69 25 32 58 80 74 107 16 28 30 49 32 47 2 -1 10
-31 18 -65z"/>
<path d="M4231 764 c-147 -91 -319 -106 -442 -37 -3 2 -9 -28 -13 -67 -8 -86
-30 -146 -96 -260 -27 -48 -50 -92 -50 -97 0 -5 22 -31 49 -57 l50 -49 36 27
c102 78 252 108 332 67 23 -11 44 -25 48 -31 12 -20 23 -9 44 49 12 32 30 70
41 83 26 33 79 58 124 58 l37 0 -41 38 c-24 24 -40 48 -40 62 0 30 43 104 72
125 22 15 22 15 -32 70 -30 30 -57 55 -60 54 -3 -1 -29 -16 -59 -35z m69 -153
c-15 -29 -12 -93 6 -119 15 -22 15 -22 -31 -22 -49 0 -143 28 -209 63 l-41 21
84 13 c47 7 107 24 135 37 63 30 69 31 56 7z m-360 -86 c17 -30 55 -86 85
-124 l54 -69 -53 5 c-56 6 -141 -14 -208 -48 l-37 -19 49 103 c28 59 52 124
56 155 3 28 10 52 15 52 4 0 22 -25 39 -55z m113 -1 c62 -30 132 -58 155 -61
23 -3 42 -8 42 -10 0 -3 -13 -18 -29 -34 -16 -16 -37 -49 -46 -74 -10 -25 -23
-45 -31 -45 -16 0 -108 106 -163 187 -44 66 -57 93 -47 93 4 0 58 -25 119 -56z"/>
<path d="M1471 770 c-89 -19 -165 -82 -204 -169 -24 -56 -21 -176 8 -236 10
-22 73 -95 139 -161 103 -103 130 -124 179 -143 62 -23 140 -27 199 -11 46 13
125 66 152 103 l20 27 -84 86 c-47 47 -109 99 -138 115 l-52 31 -28 -30 c-26
-27 -105 -62 -117 -51 -8 9 15 76 35 102 27 34 80 57 130 57 48 0 73 -11 117
-52 l32 -31 47 30 c26 16 49 34 51 40 3 7 -44 61 -103 122 -81 84 -121 118
-168 141 -68 33 -146 44 -215 30z m369 -210 c44 -22 90 -62 90 -78 0 -5 -15
-17 -34 -27 -33 -18 -33 -18 -55 4 -53 53 -145 66 -218 30 -156 -75 -117 -315
56 -344 52 -9 115 10 153 44 l32 28 33 -19 c18 -11 33 -24 33 -28 0 -5 -19
-25 -42 -45 -80 -68 -212 -83 -309 -35 -60 30 -87 56 -115 113 -78 152 -11
311 155 374 52 19 167 11 221 -17z"/>
<path d="M870 494 l0 -276 77 -84 76 -84 69 0 68 0 0 278 0 277 -83 83 -82 82
-63 0 -62 0 0 -276z m270 -169 l0 -255 -45 0 -45 0 0 255 0 255 45 0 45 0 0
-255z"/>
<path d="M2040 492 l0 -277 83 -83 82 -82 208 0 207 0 0 63 0 62 -52 47 c-51
46 -52 47 -25 48 26 0 27 1 27 59 0 59 0 60 -52 105 l-53 46 78 0 77 0 0 63 0
62 -83 83 -82 82 -208 0 -207 0 0 -278z m560 48 l0 -40 -145 0 -145 0 0 -70 0
-70 120 0 120 0 0 -35 0 -34 -117 -3 -118 -3 -3 -67 -3 -68 146 0 145 0 0 -40
0 -40 -190 0 -190 0 0 255 0 255 190 0 190 0 0 -40z"/>
<path d="M2720 492 l0 -277 83 -83 82 -82 68 0 67 0 0 67 0 67 68 -67 68 -67
72 0 72 0 23 45 23 45 44 -45 c44 -45 45 -45 112 -45 l68 0 0 273 0 272 -88
88 -87 87 -71 0 -70 0 -76 -157 -75 -158 -32 70 c-25 54 -52 90 -119 158 l-87
87 -72 0 -73 0 0 -278z m404 -129 c55 -117 102 -210 104 -208 2 2 48 98 102
212 l98 208 61 3 61 3 0 -256 0 -255 -50 0 -50 0 -2 169 -3 169 -79 -169 -79
-169 -61 0 -62 0 -79 172 -80 172 -3 -172 -2 -172 -45 0 -45 0 0 255 0 256 57
-3 58 -3 99 -212z"/>
</g>
</svg>
