<?xml version="1.0" encoding="UTF-8" standalone="no"?>
<!-- Created with Inkscape (http://www.inkscape.org/) -->

<svg
   version="1.1"
   id="svg2"
   width="1440"
   height="1440"
   viewBox="0 0 1440 1440"
   sodipodi:docname="wlepa12.ai"
   xmlns:inkscape="http://www.inkscape.org/namespaces/inkscape"
   xmlns:sodipodi="http://sodipodi.sourceforge.net/DTD/sodipodi-0.dtd"
   xmlns="http://www.w3.org/2000/svg"
   xmlns:svg="http://www.w3.org/2000/svg">
  <defs
     id="defs6">
    <clipPath
       clipPathUnits="userSpaceOnUse"
       id="clipPath18">
      <path
         d="M 0,1080 H 1080 V 0 H 0 Z"
         id="path16" />
    </clipPath>
    <clipPath
       clipPathUnits="userSpaceOnUse"
       id="clipPath174">
      <path
         d="M 48,895.193 H 403 V 1014 H 48 Z"
         id="path172" />
    </clipPath>
    <clipPath
       clipPathUnits="userSpaceOnUse"
       id="clipPath190">
      <path
         d="M 0,1080 H 1080 V 0 H 0 Z"
         id="path188" />
    </clipPath>
    <clipPath
       clipPathUnits="userSpaceOnUse"
       id="clipPath320">
      <path
         d="M 273.416,934.41 H 933.899 V 329.98 H 273.416 Z"
         id="path318" />
    </clipPath>
    <clipPath
       clipPathUnits="userSpaceOnUse"
       id="clipPath324">
      <path
         d="M 271.298,935.66 H 945.304 V 321.469 H 271.298 Z"
         id="path322" />
    </clipPath>
    <mask
       maskUnits="userSpaceOnUse"
       x="0"
       y="0"
       width="1"
       height="1"
       id="mask326">
      <g
         id="g390">
        <g
           clip-path="url(#clipPath320)"
           id="g388">
          <g
             id="g386">
            <g
               id="g328" />
            <g
               id="g384">
              <g
                 clip-path="url(#clipPath324)"
                 id="g382">
                <g
                   transform="translate(759.8945,583.3994)"
                   id="g332">
                  <path
                     d="m 0,0 c 5.336,0.333 10.624,-0.183 15.861,-1.255 5.253,-1.049 10.41,-2.762 15.416,-4.997 5.002,-2.245 9.827,-5.06 14.359,-8.376 1.115,-0.845 2.241,-1.695 3.343,-2.578 l 3.209,-2.803 c 2.158,-1.864 4.117,-4.002 6.107,-6.124 3.841,-4.363 7.254,-9.18 10.141,-14.022 2.805,-4.825 5.159,-9.499 7.198,-13.632 l 2.951,-5.804 c 0.492,-0.849 0.962,-1.706 1.414,-2.569 0.452,-0.879 0.954,-1.601 1.419,-2.409 l 0.698,-1.183 0.732,-1.11 c 0.503,-0.726 0.921,-1.518 1.472,-2.198 0.53,-0.697 1.021,-1.419 1.523,-2.133 0.507,-0.713 1.114,-1.372 1.657,-2.068 1.019,-1.422 2.341,-2.742 3.517,-4.126 0.269,-0.336 0.632,-0.729 0.994,-1.119 l 1.03,-1.101 c 0.676,-0.711 1.339,-1.393 2.005,-2.056 2.63,-2.697 5.364,-5.144 8.194,-7.431 5.675,-4.573 11.761,-8.288 18.649,-11.2 3.462,-1.357 7.101,-2.561 10.991,-3.525 3.891,-0.869 8.014,-1.507 12.37,-1.85 4.358,-0.352 8.93,-0.381 13.717,-0.169 4.777,0.25 9.727,0.764 15.038,1.406 -2.769,-4.589 -6.359,-8.582 -10.412,-12.156 -4.05,-3.599 -8.649,-6.676 -13.667,-9.189 -5.021,-2.509 -10.472,-4.419 -16.201,-5.666 -5.74,-1.167 -11.722,-1.627 -17.753,-1.373 -12.053,0.59 -24.089,4.371 -34.513,10.34 -5.235,2.962 -10.096,6.483 -14.529,10.322 -1.118,0.952 -2.175,1.955 -3.215,2.929 l -1.517,1.456 c -0.481,0.468 -0.963,0.932 -1.49,1.498 -2.015,2.216 -4.103,4.31 -5.963,6.753 -0.928,1.208 -1.895,2.374 -2.772,3.629 -0.866,1.265 -1.742,2.523 -2.579,3.805 -0.867,1.269 -1.56,2.621 -2.338,3.932 l -1.129,1.982 c -0.359,0.661 -0.671,1.333 -0.999,2.002 -0.63,1.333 -1.34,2.695 -1.886,4.007 -0.57,1.314 -1.123,2.636 -1.653,3.964 l -1.408,3.829 c -0.486,1.286 -0.812,2.45 -1.223,3.68 -1.561,4.792 -2.707,9.087 -3.904,13.018 -1.166,3.891 -2.459,7.489 -3.901,11.172 -0.851,1.76 -1.51,3.675 -2.502,5.456 l -1.36,2.785 c -0.514,0.901 -0.988,1.847 -1.5,2.775 -2.064,3.694 -4.383,7.369 -6.966,11.047 -2.582,3.682 -5.435,7.351 -8.539,11.075 C 6.963,-7.664 3.568,-3.984 0,0"
                     style="fill:#000000;fill-opacity:1;fill-rule:nonzero;stroke:none"
                     id="path330" />
                </g>
                <g
                   transform="translate(817.5996,574.5806)"
                   id="g336">
                  <path
                     d="m 0,0 c 3.369,-0.679 6.577,-1.707 9.718,-2.903 3.158,-1.177 6.181,-2.612 9.171,-4.15 5.935,-3.127 11.552,-6.891 16.747,-11.192 5.199,-4.296 9.979,-9.118 14.309,-14.326 4.311,-5.189 8.144,-10.902 11.396,-16.136 l 1.196,-1.919 c 0.398,-0.646 0.786,-1.251 1.169,-1.836 0.377,-0.607 0.751,-1.209 1.119,-1.751 0.367,-0.557 0.741,-1.138 1.102,-1.638 1.44,-2.127 2.836,-3.917 4.379,-5.604 1.538,-1.665 3.351,-3.287 5.278,-4.777 1.934,-1.491 4.043,-2.839 6.325,-4.088 4.563,-2.479 9.853,-4.511 15.654,-6.096 2.896,-0.863 5.919,-1.506 9.041,-2.244 1.561,-0.325 3.149,-0.652 4.764,-1.017 1.614,-0.33 3.247,-0.64 4.932,-1.083 -1.432,-0.945 -2.913,-1.769 -4.416,-2.592 -1.52,-0.726 -3.061,-1.479 -4.641,-2.11 -3.166,-1.257 -6.452,-2.293 -9.87,-2.998 -6.808,-1.428 -14.173,-1.69 -21.591,-0.16 -3.706,0.743 -7.404,1.945 -10.95,3.591 -1.764,0.843 -3.504,1.744 -5.173,2.799 -0.83,0.538 -1.669,1.07 -2.492,1.631 l -2.403,1.828 c -3.155,2.534 -5.938,5.517 -8.255,8.456 -2.32,2.96 -4.207,5.855 -5.934,8.595 l -9.412,15.5 c -3.112,4.989 -6.337,9.954 -9.677,14.955 -3.369,4.976 -6.818,10.025 -10.438,15.148 L 5.562,-8.279 C 3.705,-5.62 1.819,-2.918 0,0"
                     style="fill:#000000;fill-opacity:1;fill-rule:nonzero;stroke:none"
                     id="path334" />
                </g>
                <g
                   transform="translate(780.3135,522.5967)"
                   id="g340">
                  <path
                     d="m 0,0 c 1.945,-4.044 3.802,-7.951 5.744,-11.736 1.005,-1.884 1.945,-3.757 2.989,-5.576 0.993,-1.833 2.032,-3.626 3.103,-5.382 4.219,-7.048 8.806,-13.573 13.839,-19.484 2.504,-2.964 5.132,-5.764 7.845,-8.429 l 2.067,-1.96 2.124,-1.929 c 1.522,-1.367 2.95,-2.634 4.423,-3.847 5.808,-4.877 11.878,-8.992 18.332,-12.246 12.879,-6.491 27.317,-9.502 42.616,-8.607 7.651,0.441 15.522,1.812 23.44,4.038 0.99,0.281 1.994,0.551 2.964,0.897 l 2.858,1.169 c 1.911,0.798 3.778,1.709 5.667,2.639 3.75,1.897 7.447,4.048 11.135,6.402 -2.273,-3.74 -4.986,-7.247 -8.027,-10.505 -1.51,-1.645 -3.138,-3.179 -4.81,-4.691 -0.839,-0.753 -1.704,-1.479 -2.586,-2.186 -0.862,-0.743 -1.718,-1.514 -2.604,-2.249 -7.099,-5.848 -15.437,-10.348 -24.507,-13.258 -9.064,-2.913 -18.905,-4.07 -28.688,-3.329 -9.768,0.738 -19.481,3.424 -28.317,7.748 -8.841,4.307 -16.784,10.223 -23.446,16.965 -1.657,1.683 -3.259,3.417 -4.721,5.095 l -2.288,2.7 c -0.756,0.917 -1.471,1.867 -2.201,2.802 -2.865,3.783 -5.391,7.796 -7.605,11.934 -4.413,8.289 -7.471,17.144 -9.076,26.12 -0.38,2.252 -0.71,4.498 -0.938,6.75 -0.187,2.262 -0.377,4.502 -0.386,6.759 C -1.127,-8.896 -0.846,-4.41 0,0"
                     style="fill:#000000;fill-opacity:1;fill-rule:nonzero;stroke:none"
                     id="path338" />
                </g>
                <g
                   transform="translate(533.8652,452.5117)"
                   id="g344">
                  <path
                     d="m 0,0 c 12.974,-3.732 28.887,-9.696 45.784,-19.493 9.974,-5.782 18.505,-11.866 25.666,-17.638 5.806,-28.467 11.612,-56.933 17.417,-85.401 -27.148,1.871 -50.429,4.772 -69.064,7.614 -18.601,2.837 -31.822,5.501 -38.96,18.493 -5.012,9.122 -5.1,19.831 -4.427,27.195 2.918,-3.702 8.81,-10.106 17.709,-13.054 1.273,-0.422 19.331,-6.148 25.678,4.351 2.891,4.786 2.429,11.401 -0.886,25.02 C 15.709,-39.733 10.141,-21.242 0,0"
                     style="fill:#000000;fill-opacity:1;fill-rule:nonzero;stroke:none"
                     id="path342" />
                </g>
                <g
                   transform="translate(512.7344,631.9663)"
                   id="g348">
                  <path
                     d="m 0,0 c 0.002,0.826 7.953,0.153 16.546,4.325 8.438,4.097 13.233,10.797 15.512,14.057 12.523,17.921 5.232,32.001 15.51,40.007 3.615,2.815 4.732,1.312 21.717,3.244 13.76,1.565 28.029,3.284 43.433,9.731 5.431,2.274 12.051,5.045 19.647,10.813 12.446,9.449 16.594,18.339 18.614,17.301 3.836,-1.972 -13.416,-32.972 -13.46,-72.854 -0.017,-14.873 2.363,-27.111 4.439,-35.275 -6.337,0.256 -15.118,0.72 -25.621,1.623 -4.913,0.422 -8.407,0.802 -9.662,0.913 -25.449,2.237 -40.892,1.713 -80.305,3.412 0,0 -26.375,1.137 -26.37,2.703"
                     style="fill:#000000;fill-opacity:1;fill-rule:nonzero;stroke:none"
                     id="path346" />
                </g>
                <g
                   transform="translate(494.1206,791.6895)"
                   id="g352">
                  <path
                     d="m 0,0 c -0.687,-3.147 -12.868,-61.898 14.478,-82.177 6.98,-5.177 15.568,-7.128 24.467,-9.15 4.964,-1.128 20.983,-4.392 48.828,0 22.702,3.58 43.609,6.878 63.033,23.207 7.593,6.383 18.7,16.005 19.531,30.633 0.128,2.267 0.558,14.288 -7.102,21.35 -5.732,5.284 -11.273,3.43 -35.512,2.785 -26.301,-0.7 -30.406,0.956 -37.286,-3.713 -8.685,-5.894 -6.63,-11.58 -15.981,-19.699 C 65.167,-44.828 51.748,-49.165 40.33,-47.576 22.019,-45.029 6.429,-25.673 0,0"
                     style="fill:#000000;fill-opacity:1;fill-rule:nonzero;stroke:none"
                     id="path350" />
                </g>
                <g
                   transform="translate(585.1221,839.2651)"
                   id="g356">
                  <path
                     d="m 0,0 c -3.28,-3.914 -5.81,-6.71 -5.171,-9.731 0.934,-4.415 7.538,-4.13 8.273,-7.569 1.447,-6.778 -22.731,-14.778 -21.716,-23.788 0.219,-1.949 1.568,-3.53 4.136,-5.407 11.785,-8.612 27.953,-7.89 50.671,-6.487 29.738,1.836 33.286,2.527 36.194,6.487 2.693,3.666 2.485,13.618 2.068,33.52 C 74.2,-0.791 73.624,2.422 71.353,5.407 67.889,9.959 63.449,10.36 49.637,12.976 21.717,18.263 18.766,20.622 13.443,17.301 10.062,15.191 12.405,14.803 0,0"
                     style="fill:#000000;fill-opacity:1;fill-rule:nonzero;stroke:none"
                     id="path354" />
                </g>
                <g
                   transform="translate(572.6211,874.5444)"
                   id="g360">
                  <path
                     d="m 0,0 c -0.17,-1.466 5.476,-4.37 61.144,-16.062 50.409,-10.589 58.306,-10.838 58.749,-9.227 0.487,1.774 -8.497,4.249 -16.347,10.541 C 86.181,-0.827 82.429,25.322 82.749,48.575 82.605,49.079 80.18,57.156 72.612,59.346 66.497,61.115 59.673,58.274 55.975,52.229 47.675,29.11 35.238,8.047 16.01,2.825 7.899,0.623 0.194,1.676 0,0"
                     style="fill:#000000;fill-opacity:1;fill-rule:nonzero;stroke:none"
                     id="path358" />
                </g>
                <g
                   transform="translate(469.146,764.5044)"
                   id="g364">
                  <path
                     d="M 0,0 27.92,104.884"
                     style="fill:#000000;fill-opacity:1;fill-rule:nonzero;stroke:none"
                     id="path362" />
                </g>
                <g
                   transform="translate(477.8994,762.0908)"
                   id="g368">
                  <path
                     d="m 0,0 c 8.146,30.599 16.291,61.197 24.437,91.795 1.161,4.363 2.323,8.726 3.484,13.089 3.009,11.303 -14.5,16.125 -17.507,4.826 C 2.268,79.112 -5.877,48.514 -14.023,17.915 -15.185,13.552 -16.346,9.189 -17.507,4.827 -20.516,-6.476 -3.007,-11.298 0,0"
                     style="fill:#000000;fill-opacity:1;fill-rule:nonzero;stroke:none"
                     id="path366" />
                </g>
                <g
                   transform="translate(518.0415,888.9937)"
                   id="g372">
                  <path
                     d="m 0,0 c -0.604,-2.219 -2.201,-4.638 -5.395,-9.474 -2.613,-3.958 -4.478,-6.048 -6.214,-10.211 -0.957,-2.296 -1.484,-4.283 -1.775,-5.57 -0.516,-0.326 -5.323,-3.25 -10.654,-0.928 -4.185,1.824 -5.864,5.649 -6.214,6.498 0.24,0.64 0.574,1.598 0.887,2.785 1.21,4.581 0.991,8.321 0.888,10.211 -0.479,8.809 -0.719,13.213 -0.478,14.258 1.709,7.409 11.519,16.005 20.136,12.816 C -1.105,17.53 1.811,6.654 0,0"
                     style="fill:#000000;fill-opacity:1;fill-rule:nonzero;stroke:none"
                     id="path370" />
                </g>
                <g
                   transform="translate(518.0415,888.9937)"
                   id="g376">
                  <path
                     d="m 0,0 c -0.604,-2.219 -2.201,-4.638 -5.395,-9.474 -2.613,-3.958 -4.478,-6.048 -6.214,-10.211 -0.957,-2.296 -1.484,-4.283 -1.775,-5.57 -0.516,-0.326 -5.323,-3.25 -10.654,-0.928 -4.185,1.824 -5.864,5.649 -6.214,6.498 0.24,0.64 0.574,1.598 0.887,2.785 1.21,4.581 0.991,8.321 0.888,10.211 -0.479,8.809 -0.719,13.213 -0.478,14.258 1.709,7.409 11.519,16.005 20.136,12.816 C -1.105,17.53 1.811,6.654 0,0 Z"
                     style="fill:none;stroke:#000000;stroke-width:0.908;stroke-linecap:butt;stroke-linejoin:miter;stroke-miterlimit:10;stroke-dasharray:none;stroke-opacity:1"
                     id="path374" />
                </g>
                <g
                   transform="translate(755.4551,574.5806)"
                   id="g380">
                  <path
                     d="m 0,0 c -21.135,30.449 -58.578,34.766 -126.952,41.772 -89.66,9.189 -125.11,-3.872 -149.148,25.064 -5.59,6.729 -12.9,22.742 -27.521,54.768 -13.899,30.445 -18.01,44.392 -33.736,56.625 -4.701,3.658 -6.061,3.643 -11.911,6.126 -6.212,2.638 -11.312,5.783 -19.161,9.655 -8.237,4.063 -14.976,5.797 -21.307,7.426 -8.509,2.19 -21.246,4.47 -37.286,3.713 1.837,-3.429 5.609,-9.326 12.428,-13.924 3.61,-2.433 7.063,-3.822 9.766,-4.641 -4.591,-1.321 -11.274,-3.891 -17.755,-9.283 -9.494,-7.897 -13.068,-17.283 -17.756,-27.848 -6.521,-14.696 -14.861,-28.431 -22.195,-42.701 -13.919,-27.084 -21.623,-42.635 -18.996,-58.387 0.215,-1.283 0.626,-2.518 1.24,-3.807 1.936,-4.062 8.93,-15.064 38.842,-16.696 2.126,5.865 6.45,14.667 12.206,23.658 5.492,8.577 10.151,13.99 13.317,17.637 5.233,6.029 7.942,9.103 12.428,12.067 5.895,3.894 11.599,5.556 16.425,6.963 9.09,2.648 11.24,1.516 15.98,4.641 1.967,1.297 6.427,4.325 8.878,10.211 3.671,8.818 0.035,17.332 -0.889,19.494 -3.322,7.779 -9.23,11.652 -11.541,12.995 2.82,-0.948 8.888,-3.459 13.761,-9.746 2.079,-2.682 7.566,-10.729 6.215,-21.351 -0.863,-6.776 -4.089,-11.303 -5.327,-12.995 -0.643,-0.879 -6.502,-8.678 -15.98,-11.14 -2.657,-0.69 -5.635,-0.971 -10.653,-2.785 -2.501,-0.904 -4.515,-1.829 -5.336,-2.216 -2.089,-0.982 -3.815,-1.936 -5.258,-2.788 0.129,-0.032 0.258,-0.061 0.384,-0.101 5.887,-1.874 8.018,-11.151 8.878,-14.853 5.158,-22.204 -10.561,-38.965 -26.634,-76.118 0,0 -7.485,-17.344 -14.204,-39.916 -18.675,-62.74 41.285,-143.129 53.267,-158.735 -13.553,73.17 6.102,98.873 15.092,107.679 46.027,45.086 169.051,-3.477 244.14,-55.696 58.151,-40.44 94.461,-87.879 110.085,-77.048 14.36,9.956 -13.406,52.046 5.326,114.179 7.413,24.589 15.695,31.374 17.756,55.696 C 17.14,-69.196 20.091,-28.944 0,0"
                     style="fill:#000000;fill-opacity:1;fill-rule:nonzero;stroke:none"
                     id="path378" />
                </g>
              </g>
            </g>
          </g>
        </g>
      </g>
    </mask>
    <clipPath
       clipPathUnits="userSpaceOnUse"
       id="clipPath398">
      <path
         d="M 258.012,927.94 H 996.321 V 325.543 H 258.012 Z"
         id="path396" />
    </clipPath>
    <linearGradient
       x1="0"
       y1="0"
       x2="1"
       y2="0"
       gradientUnits="userSpaceOnUse"
       gradientTransform="matrix(533.34705,-530.55243,-530.55243,-533.34705,361.20493,891.30945)"
       spreadMethod="pad"
       id="linearGradient408">
      <stop
         style="stop-opacity:1;stop-color:#ffaa01"
         offset="0"
         id="stop404" />
      <stop
         style="stop-opacity:1;stop-color:#7c0447"
         offset="1"
         id="stop406" />
    </linearGradient>
  </defs>
  <sodipodi:namedview
     id="namedview4"
     pagecolor="#ffffff"
     bordercolor="#000000"
     borderopacity="0.25"
     inkscape:showpageshadow="2"
     inkscape:pageopacity="0.0"
     inkscape:pagecheckerboard="0"
     inkscape:deskcolor="#d1d1d1" />
  <g
     id="g8"
     inkscape:groupmode="layer"
     inkscape:label="wlepa12"
     transform="matrix(1.3333333,0,0,-1.3333333,0,1440)">
    <path
       d="M 0,0 H 1080 V 1080 H 0 Z"
       style="fill:#333333;fill-opacity:1;fill-rule:nonzero;stroke:none"
       id="path10" />
    <g
       id="g12">
      <g
         id="g14"
         clip-path="url(#clipPath18)">
        <path
           d="M 1154,1167 H -175 V -79 H 1154 Z M 1153,-78 H -174 v 1244 h 1327 z"
           style="fill:#000000;fill-opacity:1;fill-rule:nonzero;stroke:none"
           id="path20" />
        <g
           id="g22"
           transform="translate(404.875,86.7441)">
          <path
             d="M 0,0 C 17.75,0 32.977,7.686 42.605,21.288 L 63.69,9.165 C 49.276,-11.079 25.899,-22.999 0,-22.999 c -21.665,0 -41.445,7.715 -55.686,21.693 -14.095,13.806 -21.839,32.745 -21.839,53.337 0,19.404 7.744,37.588 21.81,51.161 14.444,13.922 34.224,21.608 55.715,21.608 27.06,0 50.117,-11.079 64.154,-30.599 L 43.156,81.962 C 33.846,95.535 18.446,103.163 0,103.163 -29.525,103.163 -51.799,81.179 -51.799,52.031 -51.829,22.854 -29.061,0 0,0 m -45.564,57.106 c 0.029,0.407 0.116,0.813 0.174,1.219 0.145,1.102 0.29,2.204 0.493,3.278 0.087,0.376 0.203,0.753 0.29,1.16 0.232,1.072 0.493,2.145 0.813,3.189 0.115,0.378 0.26,0.726 0.377,1.073 0.348,1.044 0.695,2.06 1.102,3.046 0.145,0.348 0.318,0.696 0.493,1.044 0.435,0.987 0.87,1.944 1.363,2.871 0.174,0.348 0.406,0.667 0.609,1.016 0.522,0.898 1.015,1.798 1.595,2.668 0.232,0.348 0.493,0.667 0.754,1.015 0.58,0.812 1.16,1.624 1.798,2.407 0.29,0.348 0.609,0.667 0.928,1.015 0.638,0.725 1.276,1.451 1.943,2.147 0.349,0.348 0.755,0.667 1.103,1.015 0.667,0.637 1.363,1.276 2.059,1.856 0.406,0.348 0.87,0.638 1.305,0.957 0.696,0.522 1.421,1.073 2.146,1.566 0.493,0.319 1.044,0.609 1.567,0.928 0.724,0.435 1.421,0.87 2.174,1.277 0.61,0.318 1.219,0.58 1.857,0.84 0.725,0.348 1.421,0.697 2.175,1.016 0.696,0.261 1.421,0.492 2.117,0.725 0.725,0.26 1.421,0.522 2.146,0.754 0.784,0.232 1.625,0.406 2.466,0.58 0.696,0.145 1.363,0.347 2.059,0.493 0.986,0.174 2.001,0.29 2.987,0.434 0.58,0.088 1.16,0.203 1.74,0.233 1.625,0.145 3.249,0.232 4.96,0.232 1.16,0 2.32,-0.029 3.451,-0.116 0.494,-0.029 0.986,-0.087 1.479,-0.116 0.609,-0.058 1.248,-0.087 1.828,-0.174 0.638,-0.087 1.276,-0.174 1.914,-0.29 0.406,-0.059 0.841,-0.116 1.247,-0.203 0.725,-0.146 1.45,-0.29 2.175,-0.464 0.29,-0.059 0.551,-0.116 0.841,-0.203 0.784,-0.203 1.567,-0.406 2.349,-0.639 0.175,-0.058 0.349,-0.087 0.522,-0.144 0.842,-0.261 1.654,-0.551 2.466,-0.841 0.087,-0.03 0.203,-0.059 0.29,-0.116 0.841,-0.32 1.682,-0.667 2.494,-1.044 0.029,-0.03 0.058,-0.03 0.116,-0.059 0.841,-0.405 1.682,-0.812 2.494,-1.247 0.145,-0.261 0.319,-0.522 0.465,-0.812 l 0.464,0.261 c 0.58,-0.319 1.16,-0.667 1.74,-1.015 0.725,-1.131 3.277,-2.755 3.277,-2.755 1.102,-1.567 4.234,-4.235 4.234,-4.235 1.044,-1.479 3.829,-3.886 4.177,-4.177 0.029,-0.057 0.087,-0.115 0.145,-0.173 1.073,-1.537 2.059,-3.161 2.929,-4.843 l 31.526,18.388 c -0.899,1.507 -1.856,2.987 -2.871,4.437 -0.261,0.377 -0.551,0.725 -0.812,1.102 -0.754,1.073 -1.537,2.117 -2.378,3.132 -0.319,0.377 -0.667,0.754 -0.987,1.161 -0.812,0.985 -1.652,1.942 -2.522,2.871 -0.349,0.377 -0.726,0.724 -1.074,1.101 -0.87,0.9 -1.769,1.799 -2.697,2.669 -0.116,0.116 -0.232,0.232 -0.348,0.348 -1.363,1.479 -2.755,2.871 -4.234,4.234 -1.363,1.48 -2.756,2.871 -4.235,4.235 -1.363,1.479 -2.755,2.872 -4.234,4.234 -1.364,1.45 -2.756,2.872 -4.235,4.234 -1.363,1.451 -2.755,2.872 -4.234,4.236 -1.363,1.478 -2.755,2.871 -4.234,4.234 -1.364,1.479 -2.756,2.871 -4.235,4.234 -1.363,1.479 -2.755,2.872 -4.234,4.235 -1.363,1.45 -2.755,2.871 -4.234,4.234 -1.364,1.45 -2.756,2.871 -4.235,4.235 -14.763,15.98 -36.689,25.986 -63.198,25.986 -48.318,0 -83.499,-35.848 -83.499,-78.743 0,-23.521 9.368,-44.317 25.058,-58.963 1.364,-1.479 2.785,-2.871 4.235,-4.235 1.334,-1.478 2.784,-2.871 4.234,-4.234 1.335,-1.479 2.785,-2.871 4.235,-4.234 1.363,-1.48 2.784,-2.871 4.234,-4.235 1.334,-1.479 2.785,-2.871 4.235,-4.234 1.363,-1.48 2.784,-2.871 4.234,-4.234 1.363,-1.48 2.784,-2.871 4.235,-4.235 1.362,-1.479 2.784,-2.871 4.234,-4.234 1.334,-1.48 2.755,-2.872 4.234,-4.235 1.334,-1.479 2.785,-2.872 4.235,-4.235 0.928,-1.015 1.885,-2.001 2.871,-2.986 h 0.029 c 0.957,-0.929 1.943,-1.857 2.958,-2.727 0.232,-0.203 0.493,-0.406 0.754,-0.638 0.783,-0.667 1.566,-1.334 2.35,-1.972 0.348,-0.29 0.695,-0.523 1.044,-0.813 0.725,-0.55 1.45,-1.101 2.204,-1.624 0.406,-0.29 0.812,-0.58 1.247,-0.84 0.696,-0.494 1.421,-0.957 2.146,-1.421 0.464,-0.29 0.899,-0.58 1.364,-0.842 0.695,-0.435 1.42,-0.87 2.145,-1.276 0.494,-0.29 0.987,-0.551 1.48,-0.812 0.725,-0.377 1.421,-0.783 2.146,-1.131 0.522,-0.261 1.044,-0.522 1.566,-0.754 0.725,-0.348 1.45,-0.696 2.204,-1.015 0.551,-0.232 1.103,-0.464 1.653,-0.697 0.755,-0.318 1.48,-0.608 2.234,-0.898 0.58,-0.233 1.131,-0.436 1.711,-0.639 0.754,-0.261 1.508,-0.521 2.291,-0.783 0.58,-0.202 1.189,-0.377 1.769,-0.58 0.783,-0.232 1.567,-0.464 2.349,-0.667 0.61,-0.174 1.219,-0.318 1.827,-0.464 0.813,-0.203 1.625,-0.377 2.437,-0.551 0.609,-0.145 1.218,-0.26 1.856,-0.406 0.841,-0.174 1.682,-0.319 2.523,-0.435 0.609,-0.116 1.219,-0.203 1.828,-0.29 0.898,-0.145 1.798,-0.232 2.697,-0.348 0.58,-0.058 1.16,-0.145 1.769,-0.203 1.015,-0.087 2.03,-0.174 3.074,-0.232 0.493,-0.029 0.986,-0.087 1.48,-0.116 1.537,-0.058 3.074,-0.116 4.64,-0.116 8.179,0 15.894,1.073 23.115,3.016 3.597,0.987 7.077,2.175 10.441,3.597 3.365,1.421 6.555,3.016 9.6,4.785 1.538,0.9 3.017,1.827 4.467,2.814 2.9,1.971 5.656,4.089 8.266,6.381 6.496,5.712 11.949,12.326 16.299,19.576 0,0 -46.839,46.144 -46.578,46.579 L -5.945,75.872 c -7.368,-13.429 -21.173,-23.087 -39.85,-23.348 0,0.407 0.057,0.784 0.057,1.19 0.03,1.188 0.058,2.291 0.175,3.392"
             style="fill:#ffffff;fill-opacity:1;fill-rule:nonzero;stroke:none"
             id="path24" />
        </g>
        <path
           d="M 220.938,208.817 H 246.2 V 66.47 h -25.262 z m -52.553,52.554 V 107.075 l 46.578,-46.579 h 37.211 v 154.296 l -46.578,46.579 z"
           style="fill:#ffffff;fill-opacity:1;fill-rule:nonzero;stroke:none"
           id="path26" />
        <g
           id="g28"
           transform="translate(655.6348,186.2822)">
          <path
             d="m 0,0 h -75.031 -5.975 v -5.975 -26.538 -5.974 h 5.975 61.632 V -58.76 h -61.632 -5.975 v -5.974 -26.538 -5.975 H -75.031 0 l -0.006,-22.535 H -106.268 V 22.564 L 0,22.564 Z M -158.821,75.089 V -79.207 l 46.579,-46.579 H 5.975 v 34.484 l -29.642,26.538 h 16.242 v 32.223 L -37.066,-6.004 H 5.975 V 28.48 l -46.579,46.58 h -118.217 z"
             style="fill:#ffffff;fill-opacity:1;fill-rule:nonzero;stroke:none"
             id="path30" />
        </g>
        <g
           id="g32"
           transform="translate(920.0254,208.8174)">
          <path
             d="m 0,0 v -142.347 h -25.493 v 72.769 26.769 l -11.399,-24.246 -35.383,-75.292 h -33.934 l -35.354,75.292 -11.399,24.246 v -26.769 -72.769 h -25.262 V 0 h 31.556 l 52.147,-109.805 5.395,-11.398 5.395,11.398 L -31.816,0 Z m -82.137,52.554 -41.358,-87.415 -19.402,40.836 -46.58,46.579 h -41.299 v -154.296 l 46.578,-46.579 h 37.211 v 38.11 l 36.979,-38.11 h 41.532 l 11.95,25.407 25.058,-25.407 H 5.975 V 5.975 l -46.579,46.579 z"
             style="fill:#ffffff;fill-opacity:1;fill-rule:nonzero;stroke:none"
             id="path34" />
        </g>
        <g
           id="g36"
           transform="translate(195.4559,930.6038)">
          <path
             d="m 0,0 -2.317,-5.273 h 4.633 z m -2.991,-6.759 -1.487,-3.269 H -6.224 L 0,3.562 6.223,-10.028 H 4.478 l -1.487,3.269 z"
             style="fill:#ffffff;fill-opacity:1;fill-rule:nonzero;stroke:none"
             id="path38" />
        </g>
        <g
           id="g40"
           transform="translate(214.6826,927.1462)">
          <path
             d="m 0,0 v -0.519 c 0,-3.578 -2.525,-6.327 -6.172,-6.327 -3.648,0 -6.587,3.146 -6.587,6.76 0,3.751 3.008,6.829 6.76,6.829 2.023,0 4.028,-0.917 5.307,-2.525 L -1.833,3.129 c -0.934,1.28 -2.506,2.127 -4.097,2.127 -2.922,0 -5.204,-2.369 -5.204,-5.291 0,-2.731 2.248,-5.325 5.065,-5.325 2.024,0 4.202,1.747 4.271,3.873 H -5.169 V 0 Z"
             style="fill:#ffffff;fill-opacity:1;fill-rule:nonzero;stroke:none"
             id="path42" />
        </g>
        <g
           id="g44"
           transform="translate(224.021,928.3566)">
          <path
             d="M 0,0 V 5.256 H 1.625 V -7.78 H 0 v 6.258 H -6.207 V -7.78 H -7.832 V 5.256 h 1.625 V 0 Z"
             style="fill:#ffffff;fill-opacity:1;fill-rule:nonzero;stroke:none"
             id="path46" />
        </g>
        <g
           id="g48"
           transform="translate(234.466,933.6122)">
          <path
             d="m 0,0 v -7.694 c 0,-2.126 0.639,-4.097 3.146,-4.097 2.507,0 3.147,1.971 3.147,4.097 V 0 h 1.625 v -8.247 c 0,-2.87 -1.781,-5.065 -4.772,-5.065 -2.99,0 -4.771,2.195 -4.771,5.065 l 0,8.247 z"
             style="fill:#ffffff;fill-opacity:1;fill-rule:nonzero;stroke:none"
             id="path50" />
        </g>
        <g
           id="g52"
           transform="translate(246.0507,927.5785)">
          <path
             d="m 0,0 h 0.035 c 0.484,0.865 1.452,1.331 2.438,1.331 2.281,0 2.869,-1.538 2.869,-3.51 V -7.002 H 3.787 v 4.633 c 0,1.383 -0.19,2.317 -1.781,2.317 C 0,-0.052 0,-1.816 0,-3.285 v -3.717 h -1.555 v 8.091 l 1.555,0 z"
             style="fill:#ffffff;fill-opacity:1;fill-rule:nonzero;stroke:none"
             id="path54" />
        </g>
        <path
           d="m 255.475,920.576 h -1.555 v 8.092 h 1.555 z m 0.294,11.791 c 0,-0.587 -0.484,-1.054 -1.072,-1.054 -0.588,0 -1.072,0.467 -1.072,1.054 0,0.605 0.484,1.09 1.072,1.09 0.588,0 1.072,-0.485 1.072,-1.09"
           style="fill:#ffffff;fill-opacity:1;fill-rule:nonzero;stroke:none"
           id="path56" />
        <g
           id="g58"
           transform="translate(260.766,923.6195)">
          <path
             d="M 0,0 2.334,5.048 H 4.08 L 0,-3.319 -4.063,5.048 h 1.747 z"
             style="fill:#ffffff;fill-opacity:1;fill-rule:nonzero;stroke:none"
             id="path60" />
        </g>
        <g
           id="g62"
           transform="translate(271.2786,925.5381)">
          <path
             d="M 0,0 C -0.19,1.21 -0.986,2.023 -2.23,2.023 -3.44,2.023 -4.339,1.159 -4.53,0 Z m -4.616,-1.175 c 0.017,-1.383 0.951,-2.68 2.438,-2.68 1.192,0 1.832,0.605 2.42,1.573 l 1.314,-0.743 c -0.761,-1.401 -2.178,-2.213 -3.751,-2.213 -2.473,0 -3.977,1.867 -3.977,4.253 0,2.489 1.331,4.357 3.942,4.357 2.576,0 3.786,-1.902 3.786,-4.305 v -0.242 z"
             style="fill:#ffffff;fill-opacity:1;fill-rule:nonzero;stroke:none"
             id="path64" />
        </g>
        <g
           id="g66"
           transform="translate(275.8617,927.3537)">
          <path
             d="m 0,0 h 0.052 c 0.38,0.951 1.176,1.556 2.213,1.556 0.449,0 0.899,-0.155 1.279,-0.397 L 2.835,-0.259 C 2.558,-0.017 2.248,0.069 1.885,0.069 0.208,0.069 0,-1.487 0,-2.8 V -6.778 H -1.556 V 1.314 H 0 Z"
             style="fill:#ffffff;fill-opacity:1;fill-rule:nonzero;stroke:none"
             id="path68" />
        </g>
        <g
           id="g70"
           transform="translate(283.5565,926.8177)">
          <path
             d="m 0,0 c -0.19,0.398 -0.588,0.709 -1.037,0.709 -0.433,0 -0.848,-0.346 -0.848,-0.795 0,-0.709 0.934,-1.021 1.885,-1.453 0.951,-0.431 1.867,-1.019 1.867,-2.299 0,-1.539 -1.279,-2.679 -2.783,-2.679 -1.176,0 -2.369,0.673 -2.801,1.814 l 1.331,0.606 c 0.328,-0.606 0.726,-1.038 1.47,-1.038 0.657,0 1.227,0.45 1.227,1.141 0,0.433 -0.207,0.64 -0.57,0.882 l -1.522,0.813 c -0.899,0.483 -1.555,0.933 -1.555,2.04 0,1.314 1.071,2.351 2.385,2.351 0.986,0 1.781,-0.536 2.212,-1.418 z"
             style="fill:#ffffff;fill-opacity:1;fill-rule:nonzero;stroke:none"
             id="path72" />
        </g>
        <path
           d="m 288.882,920.576 h -1.556 v 8.092 h 1.556 z m 0.294,11.791 c 0,-0.587 -0.484,-1.054 -1.072,-1.054 -0.588,0 -1.072,0.467 -1.072,1.054 0,0.605 0.484,1.09 1.072,1.09 0.588,0 1.072,-0.485 1.072,-1.09"
           style="fill:#ffffff;fill-opacity:1;fill-rule:nonzero;stroke:none"
           id="path74" />
        <g
           id="g76"
           transform="translate(293.188,920.5762)">
          <path
             d="m 0,0 h -1.556 v 6.639 h -0.847 v 1.453 h 0.847 v 3.094 H 0 V 8.092 H 1.522 V 6.639 H 0 Z"
             style="fill:#ffffff;fill-opacity:1;fill-rule:nonzero;stroke:none"
             id="path78" />
        </g>
        <g
           id="g80"
           transform="translate(294.2947,928.6678)">
          <path
             d="M 0,0 H 1.816 L 4.547,-5.135 7.089,0 H 8.834 L 2.282,-12.724 H 0.519 L 3.7,-6.708 Z"
             style="fill:#ffffff;fill-opacity:1;fill-rule:nonzero;stroke:none"
             id="path82" />
        </g>
        <g
           id="g84"
           transform="translate(309.8573,924.6052)">
          <path
             d="m 0,0 c 0,-1.522 1.227,-2.819 2.766,-2.819 1.539,0 2.766,1.297 2.766,2.819 0,1.538 -1.227,2.818 -2.766,2.818 C 1.227,2.818 0,1.538 0,0 m 7.088,0 c 0,-2.438 -1.902,-4.305 -4.322,-4.305 -2.42,0 -4.322,1.867 -4.322,4.305 0,2.437 1.902,4.305 4.322,4.305 2.42,0 4.322,-1.868 4.322,-4.305"
             style="fill:#ffffff;fill-opacity:1;fill-rule:nonzero;stroke:none"
             id="path86" />
        </g>
        <g
           id="g88"
           transform="translate(322.4103,934.0098)">
          <path
             d="m 0,0 c -0.311,0.138 -0.709,0.328 -1.038,0.328 -1.106,0 -1.106,-1.4 -1.106,-2.195 V -5.342 H 0 v -1.452 h -2.144 v -6.64 H -3.7 v 6.64 h -0.709 v 1.452 H -3.7 V -1.4 c 0,1.763 0.605,3.181 2.611,3.181 0.38,0 0.743,-0.069 1.089,-0.208 z"
             style="fill:#ffffff;fill-opacity:1;fill-rule:nonzero;stroke:none"
             id="path90" />
        </g>
        <g
           id="g92"
           transform="translate(334.1851,931.1398)">
          <path
             d="m 0,0 c -0.484,0.813 -1.107,1.228 -2.091,1.228 -1.038,0 -2.179,-0.709 -2.179,-1.851 0,-1.02 1.003,-1.555 1.815,-1.866 l 0.933,-0.363 c 1.851,-0.727 3.234,-1.747 3.234,-3.925 0,-2.369 -1.833,-4.062 -4.167,-4.062 -2.109,0 -3.752,1.555 -4.028,3.647 l 1.642,0.346 c -0.017,-1.435 1.124,-2.473 2.525,-2.473 1.4,0 2.402,1.176 2.402,2.542 0,1.4 -1.123,2.005 -2.247,2.472 l -0.899,0.381 c -1.487,0.639 -2.836,1.487 -2.836,3.301 0,2.11 1.868,3.372 3.839,3.372 1.452,0 2.645,-0.709 3.354,-1.971 z"
             style="fill:#ffffff;fill-opacity:1;fill-rule:nonzero;stroke:none"
             id="path94" />
        </g>
        <g
           id="g96"
           transform="translate(343.4881,926.3681)">
          <path
             d="m 0,0 c -0.622,0.709 -1.383,1.089 -2.317,1.089 -1.521,0 -2.697,-1.348 -2.697,-2.835 0,-1.66 1.159,-2.87 2.801,-2.87 0.899,0 1.625,0.415 2.213,1.072 v -1.989 c -0.709,-0.379 -1.418,-0.535 -2.231,-0.535 -2.385,0 -4.339,1.832 -4.339,4.253 0,2.507 1.937,4.357 4.426,4.357 0.726,0 1.522,-0.173 2.144,-0.536 z"
             style="fill:#ffffff;fill-opacity:1;fill-rule:nonzero;stroke:none"
             id="path98" />
        </g>
        <path
           d="m 347.103,920.576 h -1.556 v 8.092 h 1.556 z m 0.294,11.791 c 0,-0.587 -0.484,-1.054 -1.072,-1.054 -0.588,0 -1.072,0.467 -1.072,1.054 0,0.605 0.484,1.09 1.072,1.09 0.588,0 1.072,-0.485 1.072,-1.09"
           style="fill:#ffffff;fill-opacity:1;fill-rule:nonzero;stroke:none"
           id="path100" />
        <g
           id="g102"
           transform="translate(355.1773,925.5381)">
          <path
             d="M 0,0 C -0.19,1.21 -0.986,2.023 -2.231,2.023 -3.44,2.023 -4.339,1.159 -4.53,0 Z m -4.616,-1.175 c 0.017,-1.383 0.951,-2.68 2.437,-2.68 1.193,0 1.833,0.605 2.421,1.573 l 1.313,-0.743 c -0.76,-1.401 -2.177,-2.213 -3.751,-2.213 -2.472,0 -3.976,1.867 -3.976,4.253 0,2.489 1.331,4.357 3.941,4.357 2.577,0 3.786,-1.902 3.786,-4.305 v -0.242 z"
             style="fill:#ffffff;fill-opacity:1;fill-rule:nonzero;stroke:none"
             id="path104" />
        </g>
        <g
           id="g106"
           transform="translate(359.6567,927.5785)">
          <path
             d="m 0,0 h 0.035 c 0.484,0.865 1.451,1.331 2.437,1.331 2.282,0 2.87,-1.538 2.87,-3.51 V -7.002 H 3.786 v 4.633 c 0,1.383 -0.19,2.317 -1.781,2.317 C 0,-0.052 0,-1.816 0,-3.285 v -3.717 h -1.556 v 8.091 l 1.556,0 z"
             style="fill:#ffffff;fill-opacity:1;fill-rule:nonzero;stroke:none"
             id="path108" />
        </g>
        <g
           id="g110"
           transform="translate(373.1262,926.3681)">
          <path
             d="m 0,0 c -0.622,0.709 -1.383,1.089 -2.317,1.089 -1.522,0 -2.697,-1.348 -2.697,-2.835 0,-1.66 1.158,-2.87 2.801,-2.87 0.899,0 1.625,0.415 2.213,1.072 v -1.989 c -0.709,-0.379 -1.418,-0.535 -2.231,-0.535 -2.385,0 -4.339,1.832 -4.339,4.253 0,2.507 1.937,4.357 4.426,4.357 0.726,0 1.522,-0.173 2.144,-0.536 z"
             style="fill:#ffffff;fill-opacity:1;fill-rule:nonzero;stroke:none"
             id="path112" />
        </g>
        <g
           id="g114"
           transform="translate(380.3879,925.5381)">
          <path
             d="M 0,0 C -0.19,1.21 -0.986,2.023 -2.231,2.023 -3.44,2.023 -4.339,1.159 -4.53,0 Z m -4.616,-1.175 c 0.017,-1.383 0.951,-2.68 2.438,-2.68 1.192,0 1.832,0.605 2.42,1.573 l 1.314,-0.743 c -0.761,-1.401 -2.178,-2.213 -3.752,-2.213 -2.472,0 -3.976,1.867 -3.976,4.253 0,2.489 1.331,4.357 3.941,4.357 2.577,0 3.787,-1.902 3.787,-4.305 v -0.242 z"
             style="fill:#ffffff;fill-opacity:1;fill-rule:nonzero;stroke:none"
             id="path116" />
        </g>
        <g
           id="g118"
           transform="translate(238.2422,903.8715)">
          <path
             d="m 0,0 c 0,1.574 -0.95,2.905 -2.628,2.905 -1.608,0 -2.558,-1.401 -2.558,-2.905 0,-1.521 0.916,-2.939 2.558,-2.939 C -0.933,-2.939 0,-1.59 0,0 m 1.47,-4.045 h -1.556 v 1.262 H -0.12 c -0.623,-0.917 -1.591,-1.539 -2.75,-1.539 -2.472,0 -3.872,2.058 -3.872,4.374 0,2.213 1.47,4.236 3.821,4.236 1.193,0 2.161,-0.622 2.801,-1.59 h 0.034 V 4.045 H 1.47 Z"
             style="fill:#ffffff;fill-opacity:1;fill-rule:nonzero;stroke:none"
             id="path120" />
        </g>
        <g
           id="g122"
           transform="translate(243.3268,906.8284)">
          <path
             d="m 0,0 h 0.035 c 0.484,0.865 1.452,1.331 2.438,1.331 2.281,0 2.869,-1.539 2.869,-3.51 V -7.002 H 3.786 v 4.633 c 0,1.383 -0.19,2.317 -1.78,2.317 C 0,-0.052 0,-1.816 0,-3.285 v -3.717 h -1.555 v 8.091 l 1.555,0 z"
             style="fill:#ffffff;fill-opacity:1;fill-rule:nonzero;stroke:none"
             id="path124" />
        </g>
        <g
           id="g126"
           transform="translate(256.9692,903.8715)">
          <path
             d="m 0,0 c 0,1.574 -0.951,2.905 -2.628,2.905 -1.608,0 -2.559,-1.401 -2.559,-2.905 0,-1.521 0.917,-2.939 2.559,-2.939 C -0.934,-2.939 0,-1.59 0,0 M -0.086,-2.783 H -0.121 C -0.744,-3.7 -1.728,-4.322 -2.87,-4.322 c -2.49,0 -3.872,2.058 -3.872,4.374 0,2.213 1.469,4.236 3.803,4.236 1.211,0 2.178,-0.622 2.818,-1.59 h 0.035 v 8.263 H 1.47 V -4.045 h -1.556 z"
             style="fill:#ffffff;fill-opacity:1;fill-rule:nonzero;stroke:none"
             id="path128" />
        </g>
        <g
           id="g130"
           transform="translate(269.2118,899.826)">
          <path
             d="M 0,0 H -1.625 V 11.549 H -4.72 v 1.487 H 3.095 V 11.549 H 0 Z"
             style="fill:#ffffff;fill-opacity:1;fill-rule:nonzero;stroke:none"
             id="path132" />
        </g>
        <g
           id="g134"
           transform="translate(277.2698,904.788)">
          <path
             d="M 0,0 C -0.19,1.21 -0.986,2.023 -2.231,2.023 -3.44,2.023 -4.339,1.159 -4.53,0 Z m -4.616,-1.176 c 0.017,-1.382 0.951,-2.679 2.437,-2.679 1.193,0 1.833,0.605 2.421,1.573 l 1.314,-0.743 c -0.761,-1.401 -2.179,-2.214 -3.752,-2.214 -2.472,0 -3.976,1.868 -3.976,4.253 0,2.49 1.331,4.357 3.941,4.357 2.577,0 3.787,-1.901 3.787,-4.305 v -0.242 z"
             style="fill:#ffffff;fill-opacity:1;fill-rule:nonzero;stroke:none"
             id="path136" />
        </g>
        <g
           id="g138"
           transform="translate(286.1404,905.618)">
          <path
             d="m 0,0 c -0.623,0.709 -1.383,1.089 -2.317,1.089 -1.521,0 -2.697,-1.348 -2.697,-2.835 0,-1.66 1.159,-2.87 2.801,-2.87 0.899,0 1.625,0.415 2.213,1.072 v -1.989 c -0.709,-0.38 -1.418,-0.536 -2.231,-0.536 -2.385,0 -4.339,1.833 -4.339,4.253 0,2.508 1.937,4.357 4.426,4.357 0.726,0 1.521,-0.173 2.144,-0.535 z"
             style="fill:#ffffff;fill-opacity:1;fill-rule:nonzero;stroke:none"
             id="path140" />
        </g>
        <g
           id="g142"
           transform="translate(289.4094,914.8328)">
          <path
             d="m 0,0 v -8.004 h 0.035 c 0.484,0.864 1.451,1.33 2.437,1.33 2.282,0 2.87,-1.538 2.87,-3.509 v -4.824 H 3.786 v 4.634 c 0,1.383 -0.19,2.317 -1.781,2.317 C 0,-8.056 0,-9.82 0,-11.29 v -3.717 H -1.556 V 0 Z"
             style="fill:#ffffff;fill-opacity:1;fill-rule:nonzero;stroke:none"
             id="path144" />
        </g>
        <g
           id="g146"
           transform="translate(298.4875,906.8284)">
          <path
             d="m 0,0 h 0.035 c 0.483,0.865 1.451,1.331 2.437,1.331 2.282,0 2.869,-1.539 2.869,-3.51 V -7.002 H 3.786 v 4.633 c 0,1.383 -0.19,2.317 -1.781,2.317 C 0,-0.052 0,-1.816 0,-3.285 v -3.717 h -1.556 v 8.091 l 1.556,0 z"
             style="fill:#ffffff;fill-opacity:1;fill-rule:nonzero;stroke:none"
             id="path148" />
        </g>
        <g
           id="g150"
           transform="translate(306.8394,903.8542)">
          <path
             d="m 0,0 c 0,-1.521 1.227,-2.818 2.766,-2.818 1.539,0 2.766,1.297 2.766,2.818 0,1.539 -1.227,2.819 -2.766,2.819 C 1.227,2.819 0,1.539 0,0 m 7.088,0 c 0,-2.437 -1.902,-4.305 -4.322,-4.305 -2.42,0 -4.322,1.868 -4.322,4.305 0,2.438 1.902,4.305 4.322,4.305 2.42,0 4.322,-1.867 4.322,-4.305"
             style="fill:#ffffff;fill-opacity:1;fill-rule:nonzero;stroke:none"
             id="path152" />
        </g>
        <path
           d="m 317.006,899.826 h -1.555 v 15.007 h 1.555 z"
           style="fill:#ffffff;fill-opacity:1;fill-rule:nonzero;stroke:none"
           id="path154" />
        <g
           id="g156"
           transform="translate(320.0841,903.8542)">
          <path
             d="m 0,0 c 0,-1.521 1.228,-2.818 2.766,-2.818 1.539,0 2.767,1.297 2.767,2.818 0,1.539 -1.228,2.819 -2.767,2.819 C 1.228,2.819 0,1.539 0,0 m 7.088,0 c 0,-2.437 -1.901,-4.305 -4.322,-4.305 -2.42,0 -4.322,1.868 -4.322,4.305 0,2.438 1.902,4.305 4.322,4.305 2.421,0 4.322,-1.867 4.322,-4.305"
             style="fill:#ffffff;fill-opacity:1;fill-rule:nonzero;stroke:none"
             id="path158" />
        </g>
        <g
           id="g160"
           transform="translate(334.7294,903.8715)">
          <path
             d="m 0,0 c 0,1.574 -0.951,2.905 -2.628,2.905 -1.608,0 -2.559,-1.401 -2.559,-2.905 0,-1.521 0.917,-2.939 2.559,-2.939 C -0.934,-2.939 0,-1.59 0,0 m 1.469,-3.89 c 0,-2.783 -0.795,-4.789 -3.942,-4.789 -2.247,0 -3.872,1.384 -3.907,3.666 h 1.556 c 0,-1.453 1.003,-2.282 2.42,-2.282 1.92,0 2.318,1.314 2.318,2.973 v 1.539 H -0.121 C -0.744,-3.7 -1.729,-4.322 -2.87,-4.322 c -2.49,0 -3.873,2.058 -3.873,4.374 0,2.213 1.47,4.236 3.803,4.236 1.211,0 2.179,-0.622 2.819,-1.625 h 0.035 v 1.382 h 1.555 z"
             style="fill:#ffffff;fill-opacity:1;fill-rule:nonzero;stroke:none"
             id="path162" />
        </g>
        <g
           id="g164"
           transform="translate(336.9609,907.9169)">
          <path
             d="M 0,0 H 1.816 L 4.547,-5.134 7.089,0 H 8.834 L 2.283,-12.724 H 0.519 L 3.7,-6.708 Z"
             style="fill:#ffffff;fill-opacity:1;fill-rule:nonzero;stroke:none"
             id="path166" />
        </g>
      </g>
    </g>
    <g
       id="g168">
      <g
         id="g170"
         clip-path="url(#clipPath174)">
        <g
           id="g176"
           transform="translate(97.0154,964.2527)">
          <path
             d="m 0,0 c 0.405,0 0.733,0.33 0.733,0.733 0,0.406 -0.328,0.73 -0.733,0.73 -0.402,0 -0.734,-0.324 -0.734,-0.73 C -0.734,0.33 -0.402,0 0,0"
             style="fill:#ffffff;fill-opacity:1;fill-rule:evenodd;stroke:none"
             id="path178" />
        </g>
        <g
           id="g180"
           transform="translate(118.5465,927.9103)">
          <path
             d="M 0,0 0.008,6.606 C 0.068,6.596 0.12,6.56 0.184,6.572 c 0,0 11.251,2.409 11.751,2.507 0.367,0.059 0.465,0.348 0.406,0.635 L 12.302,9.95 c -0.078,0.285 -0.097,0.439 -0.635,0.399 C 11.417,10.333 4.645,8.603 0.008,7.881 L 0.01,10.12 c 0,0.675 -0.538,1.231 -1.215,1.231 -1.539,0.331 -2.83,0.93 -3.699,1.678 l 0.173,-0.155 c -0.175,0.126 -0.371,0.247 -0.579,0.363 0.029,0.038 0.047,0.091 0.081,0.12 2.331,1.984 4.543,3.277 17.011,0.329 3.351,-0.812 7.495,-0.598 9.055,-0.598 C 25.281,12.974 4.666,0.595 0,0 M -3.171,-7.104 V 8.541 c 0,0.44 0.158,0.809 0.349,0.809 0.192,0 0.348,-0.369 0.348,-0.809 V -7.104 c 0,-0.443 -0.156,-0.808 -0.348,-0.808 -0.191,0 -0.349,0.365 -0.349,0.808 m 20.523,9.499 c 1,0.114 0.808,-0.58 -0.154,-1.755 l 0.344,0.25 c -2.195,-3.522 -5.799,-7.05 -10.385,-9.864 -5.549,-3.389 -10.402,-4.333 -14.22,-3.562 -0.611,0 -1.113,0.229 -1.226,0.533 l 7.065,-0.013 c 0.696,0 1.212,0.594 1.212,1.269 l 0.005,4.16 c 3.151,1.213 8.78,3.373 9.13,3.49 0.345,0.134 0.405,0.425 0.309,0.693 L 9.333,-2.171 C 9.237,-1.901 9.2,-1.746 8.661,-1.864 8.451,-1.918 4.041,-3.81 -0.006,-5.282 l 0.003,2.517 c 8.22,3.032 12.222,5.446 17.355,5.16 M 4.133,-15.104 c -9.175,-3.001 -18.013,-1.667 -21.463,3.119 l 4.187,-0.007 c 3.364,-5.022 11.848,-3.412 16.37,-1.702 0.501,-0.461 0.906,-0.945 1.193,-1.427 z m -51.385,0 -0.292,-0.017 c 0.292,0.482 0.697,0.966 1.216,1.427 4.525,-1.715 12.99,-3.32 16.352,1.702 l 4.189,0.007 c -3.456,-4.786 -12.294,-6.12 -21.465,-3.119 m -3.028,6.13 c -4.584,2.814 -8.186,6.342 -10.362,9.864 l 0.346,-0.25 c -0.983,1.175 -1.176,1.869 -0.176,1.755 5.133,0.286 9.131,-2.127 17.353,-5.16 l 0.002,-2.517 c -4.045,1.472 -8.453,3.364 -8.646,3.418 -0.538,0.118 -0.597,-0.037 -0.693,-0.307 l -0.096,-0.233 c -0.096,-0.268 -0.037,-0.559 0.307,-0.693 0.35,-0.117 5.985,-2.276 9.131,-3.489 l 0.003,-4.161 c 0,-0.675 0.538,-1.269 1.213,-1.269 l 7.063,0.013 c -0.115,-0.304 -0.614,-0.533 -1.223,-0.533 -3.817,-0.771 -8.67,0.173 -14.222,3.562 M -39.93,8.541 V -7.104 c 0,-0.443 -0.159,-0.808 -0.35,-0.808 -0.21,0 -0.365,0.365 -0.365,0.808 V 8.541 c 0,0.44 0.155,0.809 0.365,0.809 0.191,0 0.35,-0.369 0.35,-0.809 m -24.009,4.547 c 1.542,0 5.683,-0.214 9.035,0.598 12.467,2.948 14.68,1.655 17.032,-0.329 0.031,-0.026 0.047,-0.077 0.073,-0.111 -0.212,-0.119 -0.413,-0.242 -0.592,-0.372 l 0.191,0.155 c -0.885,-0.748 -2.158,-1.347 -3.717,-1.678 -0.675,0 -1.213,-0.556 -1.213,-1.231 l 0.002,-2.235 c -4.661,0.722 -11.39,2.448 -11.641,2.464 -0.556,0.04 -0.578,-0.114 -0.633,-0.399 l -0.06,-0.236 c -0.058,-0.287 0.06,-0.576 0.406,-0.635 0.499,-0.098 11.77,-2.507 11.77,-2.507 0.06,-0.01 0.105,0.024 0.16,0.03 l 0.005,-6.601 c -4.68,0.602 -25.26,12.973 -20.818,13.087 m 62.958,4.497 -1.325,1.325 c 4.332,4.57 7.037,10.679 7.224,17.432 h 6.37 C 11.13,29.234 8.709,22.702 4.716,17.401 c -1.852,0.224 -3.82,0.335 -5.697,0.184 m -2.368,0.286 0.541,-0.541 c -0.553,-0.106 -1.087,-0.246 -1.603,-0.415 0.364,0.308 0.717,0.629 1.062,0.956 M -18.371,-9.435 c -0.018,0.078 -0.037,0.152 -0.037,0.229 0,0.693 0.557,1.232 1.231,1.232 h -0.231 c 2.64,0.637 6.706,0.369 11.08,-0.886 0.634,-0.172 1.25,-0.365 1.869,-0.575 z m -21.332,27.296 c 0.341,-0.321 0.677,-0.647 1.034,-0.951 -0.467,0.159 -0.973,0.306 -1.566,0.421 z m -5.533,41.897 4.496,-4.497 c -4.336,-4.578 -7.044,-10.694 -7.228,-17.455 h -6.357 c 0.187,8.511 3.606,16.217 9.089,21.952 m 22.971,4.708 c -0.042,-0.227 -0.09,-0.449 -0.17,-0.649 -0.03,-0.13 -0.019,-0.216 -0.019,-0.316 -6.674,-0.23 -12.713,-2.918 -17.244,-7.2 l -4.498,4.497 c 5.729,5.482 13.425,8.901 21.931,9.089 z m 20.156,-6.931 c -1.052,0.655 -2.047,1.441 -2.486,2.797 -1.541,2.544 -3.333,3.061 -4.664,1.117 -0.057,-0.256 -0.14,-0.529 -0.23,-0.808 -2.519,1.289 -5.266,2.189 -8.171,2.615 0.245,0.423 0.203,1.02 0.269,1.678 -0.587,1.332 -2.455,1.108 -3.407,1.548 v 3.405 c 8.509,-0.188 16.211,-3.608 21.945,-9.093 z m -0.35,-19.729 c -0.067,1.929 -0.425,3.855 -1.089,5.711 0.118,0.055 0.234,0.103 0.359,0.185 0.423,3.027 1.234,3.489 2.927,3.123 0.675,1.811 -0.439,2.312 -1.674,2.811 -1.195,0.538 -1.523,-0.749 -1.445,-1.829 -1.227,0.909 -2.163,2.073 -3.131,3.248 l 0.772,0.771 c 0.435,-0.617 0.792,-1.202 1.009,-1.531 3.315,1.542 3.323,-0.395 4.895,-0.838 C 2.137,46.005 3.311,42.04 3.432,37.806 Z M -5.133,26.091 -3.73,26.4 -3.92,25.418 c -0.134,0.326 -1.329,0 -1.213,0.673 M -7.51,24.112 c 0.319,0.345 0.625,0.701 0.915,1.067 0.731,-0.881 2.213,-0.699 3.328,-0.977 0.157,2.372 2.139,1.486 2.139,2.951 -1,0.944 -2.139,0.616 -3.412,0.944 -0.081,-0.137 -0.198,-0.24 -0.331,-0.327 1.461,2.636 2.282,5.579 2.406,8.572 H 3.43 C 3.245,30.003 0.709,24.26 -3.351,19.954 Z m -2.972,-9.433 c -0.127,0.012 -0.255,0.023 -0.384,0.033 1.121,0.447 1.907,1.232 2.226,2.594 -0.447,2.723 -0.127,4.348 0.748,5.108 l 3.5,-3.499 c -1.8,-1.699 -3.848,-3.13 -6.09,-4.236 m -9.832,-5.504 c 0.652,1.966 3.813,3.451 7.607,3.451 3.179,0 5.856,-1.002 7.073,-2.488 V -6.913 c -6.071,1.678 -11.621,1.851 -14.699,0.635 z m -26.032,19.597 c 0.269,-0.251 0.576,-0.521 0.923,-0.635 0.346,-0.118 0.751,-0.059 1.212,0.362 0.752,0.733 1.158,1.87 1.579,2.95 0.427,1.08 0.866,2.12 1.7,2.717 0.173,0 0.386,0.037 0.652,0.078 0.255,0.059 0.561,0.095 0.889,0.132 l 0.808,0.808 0.789,0.812 c -0.579,-1.579 -0.251,-2.622 0.272,-3.545 0.517,-0.947 1.214,-1.751 1.309,-2.927 l 0.155,-3.334 0.155,-3.315 c 0.362,-0.694 0.981,-1.059 1.652,-1.328 0.697,-0.251 1.449,-0.446 2.084,-0.811 0,0 0.191,-0.04 0.387,-0.233 0.21,-0.21 0.42,-0.574 0.479,-1.228 0.059,-0.541 -0.251,-0.91 -0.538,-1.121 -0.31,-0.228 -0.889,-0.154 -0.889,-0.154 -1.423,0.712 -2.559,0.848 -4.006,0.965 -1.444,0.134 -2.602,0.134 -4.198,0.21 -0.503,1.195 -1.465,2.313 -2.294,3.275 -0.811,0.982 -1.811,1.793 -3.065,2.331 l -1.367,0.251 -1.369,0.25 c 0.232,0.675 0.502,1.446 0.907,2.103 0.424,0.634 0.963,1.176 1.774,1.387 m 5.743,7.57 c 0.008,-0.204 0.019,-0.407 0.035,-0.61 -1.106,-0.382 -1.898,-1.252 -2.427,-2.2 -0.675,-1.254 -0.924,-2.622 -1.946,-3.566 -0.183,0.043 -0.368,0.066 -0.553,0.075 -0.59,2.007 -0.935,4.119 -0.999,6.301 z m 5.067,13.714 c -3.005,-3.242 -4.893,-7.523 -5.072,-12.25 h -5.877 c 0.184,6.351 2.724,12.099 6.79,16.41 z m 13.271,11.991 V 56.15 c -4.717,-0.179 -8.986,-2.059 -12.227,-5.054 l -4.162,4.161 c 4.308,4.064 10.049,6.605 16.389,6.79 m 1.331,1.866 c -0.077,0.789 0.79,1.659 1.331,0.52 -0.329,-0.461 -0.793,-0.598 -1.331,-0.52 M -4.595,45.631 c -1.408,1.269 -2.349,2.695 -4.296,3.735 0,0 0.077,1.467 -0.907,2.544 -0.619,0.693 1.06,0.251 1.06,0.251 1.812,-1.656 2.794,-4.064 4.663,-5.472 0,0 0.982,-0.343 0.345,-1.117 -0.459,-0.539 -0.865,0.059 -0.865,0.059 m -2.18,-7.825 c -0.267,1.455 0.312,3.119 0.097,4.646 -1.227,1.18 -2.323,3.29 -3.726,4.707 l 1.196,1.198 c 1.574,-0.639 2.558,-3.748 4.045,-4.723 0.266,-0.667 0.494,-1.344 0.674,-2.029 -0.205,0.024 -0.425,0.017 -0.664,-0.057 -0.271,-0.6 -0.715,-1.622 -0.522,-2.352 0.133,-0.539 1.002,-1.233 1.677,-1.022 0.016,0.034 0.034,0.084 0.051,0.125 0.012,-0.165 0.01,-0.329 0.016,-0.493 z m -4.738,-11.77 1.088,-1.09 c -1.319,0.052 -2.774,0.024 -3.208,1.088 0.597,0.226 1.34,0.131 2.12,0.002 m -24.39,9.96 c 0.461,-0.617 0.769,-1.269 1.135,-1.926 0.363,-0.635 0.812,-1.275 1.523,-1.829 0.196,-0.087 0.361,-0.115 0.522,-0.123 0.525,-1.178 1.218,-2.232 2.044,-3.15 l -3.83,-3.828 c -0.058,0.064 -0.122,0.126 -0.181,0.191 -0.172,1.521 0.285,3.096 -0.155,4.502 -0.194,1 -1.021,2.002 -1.504,3.021 -0.501,1.021 -0.675,2.064 0.446,3.142 m 5.231,9.199 c -0.273,-0.307 -0.536,-0.627 -0.784,-0.967 -0.297,0.039 -0.619,-0.01 -0.981,-0.217 -1.445,-0.906 -2.697,-2.175 -3.834,-3.602 -0.665,-0.835 -1.289,-1.718 -1.892,-2.603 h -0.977 c 0.184,4.258 1.903,8.192 4.662,11.193 z m 8.407,4.05 c -2.674,-0.164 -5.282,-1.182 -7.364,-3.011 l -3.81,3.81 c 2.959,2.73 6.853,4.459 11.174,4.639 z m -14.74,-12.054 c 0,0 0.52,0.735 1.058,1.482 0.52,0.755 1.084,1.541 1.158,1.637 0.077,0.099 0.733,0.829 1.445,1.331 0.694,0.501 1.445,0.771 1.445,0.771 0.735,0.269 1.214,-0.115 1.715,-0.48 0.502,-0.347 1.003,-0.693 1.753,-0.328 0.674,0.232 0.888,1.652 2.161,1.928 0.944,0.189 1.52,0.749 2.272,-0.907 -0.48,-0.638 -0.79,-1.542 -0.963,-2.486 -0.173,-0.925 -0.229,-1.868 -0.173,-2.603 -0.155,-0.169 -0.539,-0.114 -0.925,-0.077 -0.388,0.037 -0.771,0.077 -0.963,-0.092 -0.654,-0.774 -0.717,-1.523 -0.503,-2.238 0.196,-0.712 0.639,-1.406 0.986,-2.08 0.037,-0.926 -0.096,-1.254 -0.25,-1.408 -0.155,-0.173 -0.332,-0.137 -0.406,-0.344 -0.29,0.344 -0.809,1.077 -1.389,1.711 -0.56,0.638 -1.197,1.177 -1.717,1.1 -0.269,0.04 -0.789,-0.075 -1.232,-0.211 -0.464,-0.136 -0.848,-0.273 -0.848,-0.273 -1,0.561 -1.464,1.619 -2.024,2.449 -0.554,0.81 -1.21,1.423 -2.6,1.118 m 12.679,-15.78 c 0.055,-0.581 0.092,-1.176 0.145,-1.766 -3.558,0.535 -6.761,2.126 -9.29,4.452 l 3.835,3.832 c 1.95,-1.704 4.404,-2.761 6.965,-3.018 -0.787,-1.061 -1.372,-2.137 -1.655,-3.5 m 11.213,21.753 c -0.925,-0.598 -2.389,0.191 -3.005,1.117 -1.191,-0.27 -2.139,0.734 -3.197,0 -1.637,-0.403 -3.411,-0.403 -2.95,-2.408 0.195,-1.195 1.062,-1.464 1.869,-2.408 0.734,-1.869 1.447,-3.661 0.772,-5.664 -0.52,-1.213 -2.309,-2.16 -3.718,-1.832 -0.328,-0.465 -0.984,-0.849 -0.465,-1.734 2.409,-1.696 4.953,-2.544 5.804,-2.85 0.341,-0.128 0.438,-0.239 0.449,-0.338 -5.169,-2.044 -11.299,0.286 -13.729,5.462 0.384,0.1 0.85,0.135 1.502,-0.039 l 1.254,-1.482 1.236,-1.464 c 0.578,0.173 0.98,0.538 1.385,0.959 0.388,0.427 0.772,0.928 1.31,1.352 -0.229,0.577 0.176,0.808 -1.058,1.83 -0.579,0.483 -0.597,1.405 -0.366,2.331 0.174,0.132 0.577,0.213 1.022,0.232 0.424,0.018 0.867,0 1.096,-0.115 0.269,1.078 -0.498,2.581 0.155,3.677 0.655,1.062 0.655,2.525 0.946,3.68 -0.058,0.926 -0.464,1.408 -1.042,1.659 -0.557,0.251 -1.273,0.251 -1.906,0.232 -0.465,-0.136 -0.904,-0.346 -1.292,-0.619 -0.406,-0.251 -0.771,-0.597 -1.118,-0.999 -0.75,-0.882 -1.337,-0.575 -1.954,-0.169 4.188,5.53 12.57,5.616 16.901,0.34 0.114,-0.296 0.174,-0.563 0.099,-0.75 m 2.515,7.744 c 0.023,-0.141 0.076,-0.286 0.088,-0.424 0.028,-0.444 0.003,-0.875 0.117,-1.233 l -1.167,-1.165 c -0.619,0.368 -1.299,0.574 -2.073,0.509 -0.425,-0.498 -0.514,-1.132 -0.483,-1.794 -1.987,1.513 -4.318,2.317 -6.682,2.449 v 5.44 c 3.847,-0.159 7.372,-1.543 10.2,-3.782 M -30.626,14.784 c -0.681,0 -1.34,-0.04 -1.982,-0.103 -1.777,0.883 -3.425,1.985 -4.93,3.249 1.059,-0.19 2.089,-0.588 2.962,-1.202 1.022,0.328 1.502,0.096 2.025,0.04 0.517,-0.077 1.077,0.019 1.711,0.48 0.483,0.387 1.121,0.829 1.35,1.503 0.095,0.276 0.092,0.596 0.009,0.952 1.718,-0.784 3.568,-1.317 5.51,-1.565 0.191,-0.915 0.517,-1.774 1.17,-2.487 0.184,-0.125 0.361,-0.196 0.536,-0.241 v -3.059 c -1.365,1.427 -4.589,2.433 -8.361,2.433 m 9.828,-2.378 v 3.282 c 0.496,0.256 0.985,0.596 1.483,0.773 2.284,1.315 3.523,-0.801 5.195,-1.744 -3.007,-0.238 -5.492,-1.122 -6.678,-2.311 m 10.636,4.9 c -0.311,-1.002 -1.466,-1.098 -2.316,-1.6 -3.08,0.656 -3.563,4.182 -9.282,1.062 -1.6,0.538 -0.83,3.024 -1.312,4.509 0.541,1.137 0.656,2.64 1.85,3.504 0.081,0.036 0.169,0.061 0.255,0.087 0.437,0.016 0.873,0.057 1.309,0.122 1.636,-0.033 3.512,-0.397 3.81,1.624 0.132,1.077 0.427,1.386 -0.561,2.272 -5.524,0.096 -4.447,2.234 -2.386,3.893 1.039,1.387 0.675,2.253 0.693,4.355 0.019,2.545 -2.486,5.045 -2.486,5.045 0.329,1.273 2.313,1.077 2.604,0.774 0.944,-0.405 2.773,-0.251 3.37,-1.405 2.678,-0.331 2.854,0.461 2.792,1.922 l -0.923,3.355 c 1.117,-0.118 3.736,-3.293 4.721,-4.472 0.81,-0.941 -0.35,-2.483 -0.446,-3.817 -0.133,-1.943 2.814,-3.426 1.08,-5.372 -0.807,-1.867 -4.181,-0.79 -4.181,-3.062 -0.189,-1.389 2.408,-1.736 2.216,-3.083 -2.043,-0.098 -3.913,1.288 -5.432,0.094 -0.675,-0.945 0.671,-2.236 1.405,-3.022 1.482,-1.139 2.235,0.248 3.971,-0.947 -0.309,-0.306 -0.078,-0.849 -0.56,-1.829 -0.502,-0.981 0.058,-3.257 -0.191,-4.009 m 4.723,12.571 c -0.339,0.605 -0.985,0.492 -1.564,0.492 -0.483,-0.325 -0.619,-0.809 -0.539,-1.347 0.296,-0.59 0.869,-0.543 1.415,-0.528 -0.661,-1.195 -1.472,-2.318 -2.416,-3.349 l -0.708,0.708 c 0.312,0.035 0.616,0.097 0.895,0.238 1.582,1.737 -1.172,2.891 -1.346,3.337 -0.192,0.442 0.213,0.594 0,0.807 2.334,0.867 4.897,2.043 4.299,5.488 -0.278,0.195 -0.499,0.402 -0.687,0.619 h 2.155 C -4.034,34.12 -4.534,31.92 -5.439,29.877 m -4.182,25.695 c 0.325,-0.771 0.498,-1.328 0.612,-1.328 0.802,0.15 1.624,-0.464 2.347,-1.26 l -0.811,-0.812 c -0.321,0.362 -0.639,0.724 -0.997,1.066 0.077,0.195 -1.675,0.734 -1.424,0.907 -0.384,-0.348 -1.007,-0.479 -1.348,-0.974 -2.778,1.779 -6.043,2.855 -9.556,2.987 v 5.901 c 3.905,-0.113 7.578,-1.118 10.833,-2.821 -0.419,-1.313 -0.662,-2.662 0.344,-3.666 m 8.842,0 c 0.731,-0.83 0.694,-2.216 0.457,-4.337 -2.252,2.817 -4.428,-1.076 -4.582,2.198 -1.638,2.002 -3.293,-0.096 -3.834,3.912 0.076,1.347 -0.289,2.928 0.924,3.795 1.603,0.325 1.195,-1.6 2.411,-2.138 1.095,-1.907 2.907,-2.722 4.624,-3.43 M -37.466,-6.913 v 17.051 c 1.195,1.486 3.893,2.488 7.069,2.488 3.799,0 6.941,-1.485 7.616,-3.451 V -6.278 c -3.083,1.216 -8.634,1.043 -14.685,-0.635 M 4.918,37.806 c -0.127,4.619 -1.443,8.936 -3.644,12.669 0.12,0.826 -0.119,1.781 0.005,2.63 0.288,1.945 -0.776,2.84 -2.09,3.647 l 2.999,3.002 c 5.486,-5.734 8.907,-13.44 9.095,-21.948 z m -52.68,-20.435 c -3.995,5.306 -6.411,11.854 -6.569,18.971 h 6.354 c 0.062,-2.271 0.407,-4.471 1.006,-6.563 -0.075,-0.029 -0.15,-0.05 -0.223,-0.082 -0.734,-0.35 -1.409,-0.925 -1.947,-1.697 -0.096,-0.693 -0.678,-1.367 -1.059,-2.024 -0.368,-0.673 -0.559,-1.33 0.094,-2.021 1.157,-0.077 2.352,-0.038 3.391,-0.347 1.062,-0.292 1.966,-0.925 2.504,-2.331 0.622,-1.643 1.614,-2.698 2.715,-3.125 l -0.593,-0.591 c -1.521,0.119 -3.387,0.077 -5.673,-0.19 m 10.99,-26.231 c 4.354,1.255 8.439,1.523 11.059,0.886 h -0.229 c 0.676,0 1.231,-0.539 1.231,-1.232 0,-0.077 -0.021,-0.151 -0.039,-0.229 h -1.984 c -0.003,0.003 -0.009,0.007 -0.013,0.009 l 0.01,-0.009 h -11.906 c 0.598,0.21 1.217,0.403 1.871,0.575 m 15.241,92.505 c 25.723,0 46.568,-20.85 46.568,-46.569 0,-7.834 -1.944,-15.213 -5.363,-21.688 -3.054,0.071 -6.444,0.36 -8.818,0.897 -1.167,0.264 -2.734,0.607 -4.483,0.885 4.019,5.615 6.408,12.473 6.408,19.906 0,18.957 -15.355,34.315 -34.312,34.315 -18.941,0 -34.317,-15.358 -34.317,-34.315 0,-7.438 2.394,-14.308 6.421,-19.93 -1.378,-0.21 -2.864,-0.483 -4.533,-0.861 -2.365,-0.533 -5.726,-0.822 -8.767,-0.895 -3.418,6.478 -5.374,13.85 -5.374,21.686 0,25.719 20.849,46.569 46.57,46.569 M 26.502,15.806 c -0.699,-0.234 -2.219,-0.376 -4.095,-0.419 3.239,6.541 5.078,13.897 5.078,21.689 0,27.069 -21.947,49.014 -49.016,49.014 -27.072,0 -49.016,-21.945 -49.016,-49.014 0,-7.792 1.84,-15.152 5.076,-21.69 -1.898,0.042 -3.44,0.184 -4.15,0.42 -3.024,-0.155 9.653,-10.812 9.842,-10.967 -2.312,0.331 -4.101,0.561 -4.894,0.948 -0.962,0.095 -0.574,-1.254 0.388,-3.006 2.495,-6.992 8.796,-11.99 15.218,-15.203 -0.885,-0.712 -1.578,-1.446 -2.08,-2.158 -0.192,-0.157 -0.306,-0.191 -0.461,-0.273 -0.287,-0.346 -0.173,-0.693 0.214,-0.844 3.001,-1.928 6.799,-3.259 11.018,-3.622 8.199,-0.726 15.493,2.396 18.521,7.342 h 0.305 v 0.055 -0.055 h 0.291 c 3.039,-4.946 10.317,-8.068 18.531,-7.342 4.202,0.363 8.016,1.694 11.002,3.622 0.387,0.151 0.502,0.498 0.233,0.844 -0.152,0.082 -0.273,0.116 -0.484,0.273 -0.501,0.712 -1.194,1.446 -2.078,2.158 6.431,3.216 12.722,8.202 15.217,15.203 0.965,1.752 1.35,3.101 0.387,3.006 C 20.779,5.4 18.967,5.17 16.657,4.839 c 0.191,0.155 12.871,10.812 9.845,10.967"
             style="fill:#ffffff;fill-opacity:1;fill-rule:evenodd;stroke:none"
             id="path182" />
        </g>
      </g>
    </g>
    <g
       id="g184">
      <g
         id="g186"
         clip-path="url(#clipPath190)">
        <g
           id="g192"
           transform="translate(60.157,989.4368)">
          <path
             d="M 0,0 C 0.48,0.671 1.041,0.73 1.561,0.343 L 6.376,-3.142 C 6.897,-3.528 7.014,-4.085 6.531,-4.76 l 0.211,-0.155 2.6,3.584 -0.208,0.155 C 8.651,-1.85 8.094,-1.91 7.552,-1.525 l -4.8,3.488 c -0.536,0.383 -0.65,0.943 -0.17,1.6 L 2.369,3.736 -0.232,0.152 Z"
             style="fill:#ffffff;fill-opacity:1;fill-rule:evenodd;stroke:none"
             id="path194" />
        </g>
        <g
           id="g196"
           transform="translate(69.9037,991.6907)">
          <path
             d="M 0,0 C 0.601,0.637 0.581,1.637 -0.038,2.235 -0.671,2.851 -1.674,2.832 -2.272,2.195 -2.888,1.562 -2.869,0.557 -2.235,-0.041 -1.597,-0.657 -0.613,-0.617 0,0"
             style="fill:#ffffff;fill-opacity:1;fill-rule:evenodd;stroke:none"
             id="path198" />
        </g>
        <g
           id="g200"
           transform="translate(75.9732,997.5657)">
          <path
             d="m 0,0 -2.099,-1.368 -0.692,3.275 z m -2.526,-4.873 0.136,-0.231 2.121,1.387 -0.133,0.232 c -0.731,-0.483 -1.217,-0.273 -1.353,0.405 l -0.247,1.192 2.43,1.582 1.286,-0.87 C 2.312,-1.6 1.678,-2.136 1.234,-2.43 l 0.156,-0.229 3.37,2.197 -0.136,0.23 c -0.155,-0.096 -0.52,-0.365 -1.059,0 L -3.37,4.547 -3.699,4.336 -2.194,-3.68 c 0.155,-0.731 -0.059,-1.004 -0.332,-1.193"
             style="fill:#ffffff;fill-opacity:1;fill-rule:evenodd;stroke:none"
             id="path202" />
        </g>
        <g
           id="g204"
           transform="translate(82.7576,1000.2643)">
          <path
             d="M 0,0 C 0.811,0.328 1.191,1.254 0.867,2.061 0.539,2.869 -0.368,3.253 -1.176,2.928 -2.005,2.6 -2.389,1.677 -2.064,0.867 -1.733,0.056 -0.811,-0.328 0,0"
             style="fill:#ffffff;fill-opacity:1;fill-rule:evenodd;stroke:none"
             id="path206" />
        </g>
        <g
           id="g208"
           transform="translate(85.9363,1006.7551)">
          <path
             d="M 0,0 1.136,-5.819 C 1.273,-6.472 0.982,-6.955 0.325,-7.07 L 0.384,-7.338 7.477,-5.952 7.535,-3.29 7.186,-3.352 C 6.669,-5.318 5.821,-6.048 4.005,-6.24 3.371,-6.317 3.256,-6.163 3.138,-5.528 l -0.556,2.832 c 1.444,0.195 1.714,0.04 2.411,-1.465 L 5.26,-4.104 4.451,0.04 4.179,-0.019 C 4.104,-1.675 3.909,-1.926 2.504,-2.272 L 1.944,0.581 C 1.829,1.216 1.888,1.331 2.328,1.408 L 3.411,1.6 C 5.375,1.927 5.802,0.272 6.012,-0.133 l 0.23,0.058 -0.498,2.56 -7.016,-1.368 0.059,-0.248 C -0.579,0.984 -0.117,0.656 0,0"
             style="fill:#ffffff;fill-opacity:1;fill-rule:evenodd;stroke:none"
             id="path210" />
        </g>
        <g
           id="g212"
           transform="translate(97.1481,1003.0192)">
          <path
             d="M 0,0 C 0.889,-0.018 1.601,0.675 1.622,1.56 1.64,2.427 0.929,3.142 0.059,3.16 -0.828,3.179 -1.537,2.486 -1.537,1.597 -1.557,0.73 -0.867,0.018 0,0"
             style="fill:#ffffff;fill-opacity:1;fill-rule:evenodd;stroke:none"
             id="path214" />
        </g>
        <g
           id="g216"
           transform="translate(100.8092,1000.8987)">
          <path
             d="M 0,0 C 0.601,-0.096 1.328,-0.656 2.063,-0.77 4.761,-1.192 5.474,0.502 5.609,1.39 5.801,2.581 5.125,3.736 3.316,4.72 2.003,5.413 1.87,6.088 1.948,6.648 2.003,6.958 2.371,7.843 3.47,7.67 5.145,7.382 5.359,5.646 5.568,4.934 L 5.819,4.894 6.246,7.651 5.956,7.688 C 5.764,7.457 5.704,7.264 5.513,7.283 4.894,7.4 4.624,7.899 3.316,8.116 2.257,8.286 0.774,7.651 0.503,5.955 0.384,5.185 0.656,4.027 1.948,3.142 3.836,1.888 4.182,1.446 4.068,0.734 4.031,0.425 3.779,-0.634 2.139,-0.384 1.004,-0.191 0.366,1.235 0.291,1.734 l -0.117,0.925 -0.288,0.037 -0.48,-3.039 0.288,-0.041 C -0.228,-0.154 -0.151,0.022 0,0"
             style="fill:#ffffff;fill-opacity:1;fill-rule:evenodd;stroke:none"
             id="path218" />
        </g>
        <g
           id="g220"
           transform="translate(109.8652,1000.8215)">
          <path
             d="M 0,0 C 0.831,-0.288 1.715,0.155 2.003,0.981 2.294,1.811 1.852,2.715 1.022,2.99 0.192,3.278 -0.711,2.851 -0.98,2.024 -1.271,1.176 -0.827,0.291 0,0"
             style="fill:#ffffff;fill-opacity:1;fill-rule:evenodd;stroke:none"
             id="path222" />
        </g>
        <g
           id="g224"
           transform="translate(117.2454,994.929)">
          <path
             d="M 0,0 C -0.558,0.324 -0.675,0.884 -0.347,1.442 L 3.199,7.338 C 3.447,7.165 4.239,6.874 4.472,5.893 4.682,5.026 4.354,4.506 4.239,4.197 L 4.472,4.063 5.799,6.242 -0.694,10.151 -2.022,7.954 -1.771,7.821 c 0.21,0.251 0.52,0.767 1.368,0.999 C 0.6,9.071 1.216,8.514 1.485,8.378 L -2.063,2.485 C -2.408,1.927 -2.948,1.751 -3.504,2.098 L -3.64,1.865 -0.134,-0.232 Z"
             style="fill:#ffffff;fill-opacity:1;fill-rule:evenodd;stroke:none"
             id="path226" />
        </g>
        <g
           id="g228"
           transform="translate(122.4481,993.2685)">
          <path
             d="M 0,0 C 0.637,-0.597 1.636,-0.538 2.216,0.115 2.813,0.753 2.758,1.753 2.1,2.353 1.445,2.929 0.442,2.892 -0.137,2.217 -0.712,1.561 -0.656,0.58 0,0"
             style="fill:#ffffff;fill-opacity:1;fill-rule:evenodd;stroke:none"
             id="path230" />
        </g>
        <g
           id="g232"
           transform="translate(124.9143,989.666)">
          <path
             d="M 0,0 C -0.52,-0.405 -1.08,-0.347 -1.485,0.173 L -1.696,0.018 2.677,-5.76 5.084,-4.642 4.875,-4.374 c -1.983,-0.368 -3.025,0.078 -3.99,1.601 -0.344,0.557 -0.251,0.715 0.27,1.099 L 3.448,0.059 C 4.259,-1.136 4.24,-1.445 3.197,-2.736 l 0.155,-0.21 3.374,2.522 -0.173,0.21 C 5.03,-0.848 4.739,-0.789 3.795,0.328 l 2.312,1.751 c 0.52,0.388 0.656,0.388 0.925,0 L 7.67,1.195 C 8.823,-0.424 7.511,-1.52 7.245,-1.888 L 7.397,-2.079 9.498,-0.501 5.203,5.203 4.989,5.049 C 5.376,4.51 5.28,3.969 4.739,3.565 Z"
             style="fill:#ffffff;fill-opacity:1;fill-rule:evenodd;stroke:none"
             id="path234" />
        </g>
        <g
           id="g236"
           transform="translate(103.6639,994.4859)">
          <path
             d="M 0,0 C -0.328,-0.464 -0.889,0.096 -1.159,-0.214 -1.213,0.597 -0.539,1.155 0,0 m -2.564,-0.889 c 1.273,-0.059 3.257,-1.309 4.26,-0.579 0.325,0.735 1.268,1.233 0.269,1.967 -0.674,-0.27 -4.529,1.618 -4.8,0.231 0.08,-0.538 -0.189,-1.212 0.271,-1.619"
             style="fill:#ffffff;fill-opacity:1;fill-rule:evenodd;stroke:none"
             id="path238" />
        </g>
        <path
           d="m 175.13,950.572 h -6.565 v 52.597 h 6.565 z"
           style="fill:#ffffff;fill-opacity:1;fill-rule:nonzero;stroke:none"
           id="path240" />
        <g
           id="g242"
           transform="translate(202.1519,969.7516)">
          <path
             d="M 0,0 9.362,21.277 18.716,0 Z m 9.362,35.646 -25.139,-54.823 h 7.049 l 6.011,13.183 h 24.159 l 6.002,-13.183 h 7.057 z"
             style="fill:#ffffff;fill-opacity:1;fill-rule:nonzero;stroke:none"
             id="path244" />
        </g>
        <g
           id="g246"
           transform="translate(248.0368,1003.1688)">
          <path
             d="M 0,0 H 28.283 V -5.999 H 6.564 v -14.719 h 21.09 v -5.999 H 6.564 v -19.881 h 21.719 v -5.999 H 0 Z"
             style="fill:#ffffff;fill-opacity:1;fill-rule:nonzero;stroke:none"
             id="path248" />
        </g>
        <g
           id="g250"
           transform="translate(314.7995,993.1936)">
          <path
             d="m 0,0 c -1.956,3.278 -4.47,4.953 -8.45,4.953 -4.19,0 -8.799,-2.861 -8.799,-7.464 0,-4.116 4.05,-6.279 7.333,-7.534 l 3.77,-1.465 c 7.473,-2.93 13.059,-7.046 13.059,-15.835 0,-9.557 -7.402,-16.393 -16.829,-16.393 -8.52,0 -15.155,6.278 -16.272,14.719 l 6.634,1.395 c -0.069,-5.79 4.54,-9.975 10.196,-9.975 5.657,0 9.706,4.743 9.706,10.254 0,5.65 -4.538,8.092 -9.077,9.975 l -3.632,1.535 c -6.005,2.581 -11.452,5.999 -11.452,13.324 0,8.51 7.541,13.602 15.502,13.602 5.866,0 10.685,-2.86 13.548,-7.952 z"
             style="fill:#ffffff;fill-opacity:1;fill-rule:nonzero;stroke:none"
             id="path252" />
        </g>
        <g
           id="g254"
           transform="translate(350.0656,950.5718)">
          <path
             d="m 0,0 h -6.564 v 46.598 h -12.501 v 5.999 H 12.499 V 46.598 H 0 Z"
             style="fill:#ffffff;fill-opacity:1;fill-rule:nonzero;stroke:none"
             id="path256" />
        </g>
        <g
           id="g258"
           transform="translate(374.7178,1003.1688)">
          <path
             d="M 0,0 H 28.282 V -5.999 H 6.564 v -14.719 h 21.09 v -5.999 H 6.564 v -19.881 h 21.718 v -5.999 H 0 Z"
             style="fill:#ffffff;fill-opacity:1;fill-rule:nonzero;stroke:none"
             id="path260" />
        </g>
        <g
           id="g262"
           transform="translate(801.4121,587.8237)">
          <path
             d="m 0,0 c 5.321,0.403 10.601,-0.021 15.84,-0.992 5.259,-0.939 10.429,-2.54 15.47,-4.655 5.035,-2.126 9.914,-4.82 14.516,-8.029 1.14,-0.812 2.278,-1.643 3.4,-2.5 1.1,-0.884 2.176,-1.812 3.271,-2.732 2.196,-1.818 4.209,-3.917 6.243,-6.005 3.942,-4.297 7.447,-9.088 10.41,-13.9 2.903,-4.812 5.287,-9.435 7.374,-13.469 2.132,-4.019 3.948,-7.51 5.914,-10.454 0.47,-0.789 0.998,-1.456 1.477,-2.197 l 0.73,-1.088 0.804,-1.023 c 0.548,-0.675 1.007,-1.403 1.57,-2.076 l 1.712,-2.007 c 0.523,-0.694 1.186,-1.344 1.799,-2.011 l 1.885,-2.031 c 1.473,-1.532 2.778,-2.833 4.161,-4.121 2.714,-2.585 5.537,-4.943 8.456,-7.153 5.854,-4.407 12.16,-7.965 19.239,-10.732 0.889,-0.319 1.788,-0.628 2.692,-0.988 0.905,-0.347 1.837,-0.565 2.769,-0.866 l 1.409,-0.456 1.434,-0.355 c 0.962,-0.211 1.934,-0.536 2.923,-0.731 3.955,-0.89 8.125,-1.462 12.511,-1.829 4.387,-0.361 8.974,-0.425 13.77,-0.271 4.787,0.192 9.742,0.629 15.052,1.173 -2.863,-4.517 -6.52,-8.428 -10.611,-11.923 -4.089,-3.521 -8.694,-6.523 -13.685,-8.991 -4.995,-2.447 -10.381,-4.389 -16.041,-5.607 -5.654,-1.174 -11.563,-1.801 -17.51,-1.581 -11.901,0.328 -23.916,3.678 -34.481,9.278 -5.298,2.782 -10.261,6.121 -14.834,9.806 -2.269,1.841 -4.463,3.839 -6.422,5.674 -1.004,0.995 -2.071,2.12 -3.098,3.181 -1.028,1.088 -2.088,2.12 -3.046,3.325 -3.982,4.573 -7.47,9.794 -10.362,15.1 -2.904,5.358 -4.953,10.699 -6.603,15.511 -1.67,4.815 -2.869,9.12 -4.121,12.982 -1.22,3.851 -2.555,7.39 -4.063,11.016 -0.882,1.732 -1.58,3.617 -2.61,5.372 -0.473,0.903 -0.927,1.829 -1.423,2.741 -0.535,0.885 -1.025,1.824 -1.565,2.731 -2.151,3.635 -4.565,7.25 -7.242,10.863 -2.677,3.617 -5.618,7.223 -8.809,10.872 C 7.099,-7.52 3.63,-3.913 0,0"
             style="fill:#000000;fill-opacity:1;fill-rule:nonzero;stroke:none"
             id="path264" />
        </g>
        <g
           id="g266"
           transform="translate(860.0557,579.2529)">
          <path
             d="m 0,0 c 3.375,-0.615 6.598,-1.579 9.759,-2.709 3.176,-1.112 6.223,-2.482 9.241,-3.956 5.991,-2.999 11.682,-6.637 16.963,-10.825 5.282,-4.187 10.171,-8.904 14.598,-14.034 4.418,-5.11 8.344,-10.749 11.685,-15.886 0.826,-1.259 1.634,-2.511 2.421,-3.652 0.39,-0.611 0.766,-1.132 1.145,-1.688 0.377,-0.57 0.76,-1.061 1.128,-1.57 1.478,-2.036 2.919,-3.743 4.545,-5.374 0.796,-0.824 1.705,-1.587 2.602,-2.389 0.939,-0.76 1.892,-1.523 2.901,-2.232 2.011,-1.429 4.176,-2.758 6.532,-3.945 2.355,-1.178 4.867,-2.263 7.523,-3.258 1.346,-0.433 2.689,-0.975 4.099,-1.378 l 2.117,-0.667 c 0.718,-0.199 1.442,-0.365 2.171,-0.579 2.915,-0.838 5.946,-1.483 9.073,-2.221 1.561,-0.318 3.149,-0.658 4.763,-1.026 1.612,-0.332 3.244,-0.653 4.922,-1.102 -1.439,-0.933 -2.924,-1.738 -4.429,-2.552 -1.521,-0.718 -3.064,-1.449 -4.639,-2.083 -1.583,-0.611 -3.186,-1.191 -4.825,-1.694 -1.644,-0.475 -3.301,-0.944 -5.002,-1.292 -3.383,-0.744 -6.896,-1.145 -10.477,-1.284 -3.587,-0.088 -7.254,0.159 -10.938,0.806 -3.689,0.627 -7.373,1.741 -10.944,3.245 -3.572,1.517 -6.986,3.437 -10.215,5.854 -3.237,2.389 -6.161,5.279 -8.604,8.182 -2.445,2.92 -4.433,5.812 -6.23,8.534 -3.528,5.444 -6.507,10.375 -9.719,15.319 -3.199,4.92 -6.534,9.8 -9.979,14.723 -3.478,4.892 -7.041,9.857 -10.779,14.891 L 5.744,-8.14 C 3.827,-5.527 1.882,-2.872 0,0"
             style="fill:#000000;fill-opacity:1;fill-rule:nonzero;stroke:none"
             id="path268" />
        </g>
        <g
           id="g270"
           transform="translate(822.1631,528.7295)">
          <path
             d="m 0,0 c 1.959,-4.027 3.848,-7.905 5.832,-11.653 1.02,-1.865 1.985,-3.717 3.058,-5.509 1.025,-1.807 2.074,-3.58 3.185,-5.303 4.336,-6.932 9.079,-13.29 14.263,-19.022 2.581,-2.874 5.304,-5.565 8.1,-8.128 2.754,-2.468 5.901,-5.183 8.842,-7.456 5.947,-4.655 12.168,-8.554 18.752,-11.618 13.15,-6.124 27.777,-8.857 43.159,-8.012 7.699,0.422 15.599,1.707 23.557,3.804 0.993,0.265 2.003,0.516 2.978,0.848 l 2.878,1.116 c 1.925,0.761 3.809,1.635 5.714,2.524 3.785,1.818 7.521,3.885 11.251,6.157 -2.356,-3.679 -5.146,-7.114 -8.253,-10.297 -1.543,-1.606 -3.2,-3.101 -4.898,-4.574 -0.852,-0.733 -1.728,-1.44 -2.621,-2.126 -0.875,-0.722 -1.741,-1.476 -2.638,-2.19 -7.18,-5.7 -15.523,-10.057 -24.534,-12.906 -9.009,-2.843 -18.726,-4.057 -28.425,-3.468 -9.684,0.577 -19.356,2.971 -28.266,6.997 -8.915,4.003 -17.039,9.594 -23.939,16.108 -3.481,3.314 -6.463,6.526 -9.526,10.272 -2.993,3.678 -5.67,7.593 -8.016,11.663 -4.671,8.157 -7.991,16.94 -9.787,25.892 -0.885,4.481 -1.441,8.985 -1.568,13.489 C -1.042,-8.896 -0.812,-4.408 0,0"
             style="fill:#000000;fill-opacity:1;fill-rule:nonzero;stroke:none"
             id="path272" />
        </g>
        <g
           id="g274"
           transform="translate(571.7119,460.6133)">
          <path
             d="m 0,0 c 13.185,-3.628 29.355,-9.424 46.528,-18.946 10.135,-5.619 18.806,-11.533 26.083,-17.142 5.9,-27.667 11.799,-55.335 17.7,-83.002 -27.589,1.819 -51.248,4.638 -70.187,7.401 -18.902,2.756 -32.338,5.345 -39.592,17.972 -5.094,8.866 -5.182,19.275 -4.499,26.432 2.966,-3.598 8.953,-9.822 17.996,-12.688 1.295,-0.41 19.646,-5.974 26.095,4.23 2.939,4.65 2.47,11.08 -0.899,24.316 C 15.964,-38.617 10.306,-20.646 0,0"
             style="fill:#000000;fill-opacity:1;fill-rule:nonzero;stroke:none"
             id="path276" />
        </g>
        <g
           id="g278"
           transform="translate(550.2383,635.0269)">
          <path
             d="m 0,0 c 0.002,0.803 8.082,0.148 16.814,4.204 8.576,3.982 13.449,10.493 15.764,13.661 12.727,17.418 5.318,31.103 15.763,38.884 3.673,2.735 4.808,1.274 22.069,3.152 13.984,1.521 28.486,3.192 44.138,9.458 5.52,2.21 12.247,4.903 19.967,10.51 12.647,9.183 16.864,17.822 18.917,16.814 3.897,-1.916 -13.634,-32.045 -13.68,-70.808 -0.017,-14.455 2.402,-26.349 4.511,-34.283 -6.44,0.249 -15.364,0.7 -26.036,1.577 -4.994,0.411 -8.544,0.78 -9.82,0.888 -25.862,2.173 -41.555,1.665 -81.609,3.316 0,0 -26.803,1.105 -26.798,2.627"
             style="fill:#000000;fill-opacity:1;fill-rule:nonzero;stroke:none"
             id="path280" />
        </g>
        <g
           id="g282"
           transform="translate(531.3218,790.2627)">
          <path
             d="m 0,0 c -0.698,-3.059 -13.077,-60.159 14.712,-79.869 7.095,-5.031 15.822,-6.927 24.867,-8.892 5.044,-1.096 21.323,-4.269 49.621,0 23.07,3.48 44.316,6.684 64.055,22.554 7.717,6.205 19.004,15.556 19.849,29.773 0.131,2.204 0.566,13.888 -7.218,20.751 -5.824,5.135 -11.455,3.333 -36.088,2.706 -26.728,-0.68 -30.901,0.93 -37.892,-3.608 C 83.081,-22.314 85.168,-27.839 75.665,-35.73 66.226,-43.568 52.588,-47.783 40.985,-46.24 22.377,-43.764 6.533,-24.952 0,0"
             style="fill:#000000;fill-opacity:1;fill-rule:nonzero;stroke:none"
             id="path284" />
        </g>
        <g
           id="g286"
           transform="translate(623.8008,836.5024)">
          <path
             d="m 0,0 c -3.333,-3.804 -5.903,-6.522 -5.254,-9.458 0.949,-4.291 7.661,-4.014 8.407,-7.356 1.471,-6.587 -23.099,-14.363 -22.069,-23.12 0.223,-1.894 1.595,-3.431 4.204,-5.255 11.976,-8.371 28.406,-7.668 51.494,-6.305 30.221,1.785 33.825,2.456 36.781,6.305 2.738,3.564 2.526,13.235 2.102,32.578 C 75.406,-0.769 74.82,2.354 72.513,5.254 68.991,9.679 64.48,10.068 50.443,12.611 22.07,17.75 19.071,20.042 13.662,16.814 10.226,14.764 12.607,14.387 0,0"
             style="fill:#000000;fill-opacity:1;fill-rule:nonzero;stroke:none"
             id="path288" />
        </g>
        <g
           id="g290"
           transform="translate(611.0977,870.7905)">
          <path
             d="m 0,0 c -0.173,-1.425 5.564,-4.247 62.137,-15.611 51.228,-10.291 59.254,-10.534 59.703,-8.968 0.495,1.725 -8.636,4.13 -16.612,10.246 C 87.58,-0.803 83.768,24.611 84.093,47.21 83.947,47.701 81.482,55.55 73.792,57.679 67.577,59.398 60.642,56.637 56.884,50.761 48.449,28.292 35.811,7.821 16.27,2.746 8.027,0.605 0.197,1.629 0,0"
             style="fill:#000000;fill-opacity:1;fill-rule:nonzero;stroke:none"
             id="path292" />
        </g>
        <g
           id="g294"
           transform="translate(505.9414,763.8413)">
          <path
             d="M 0,0 28.375,101.938"
             style="fill:#000000;fill-opacity:1;fill-rule:nonzero;stroke:none"
             id="path296" />
        </g>
        <g
           id="g298"
           transform="translate(514.6411,761.4434)">
          <path
             d="m 0,0 c 8.285,29.764 16.57,59.529 24.855,89.293 1.173,4.215 2.347,8.43 3.52,12.644 3.119,11.205 -14.286,15.986 -17.4,4.797 C 2.69,76.969 -5.595,47.205 -13.88,17.44 -15.053,13.226 -16.226,9.011 -17.399,4.796 -20.518,-6.408 -3.114,-11.189 0,0"
             style="fill:#000000;fill-opacity:1;fill-rule:nonzero;stroke:none"
             id="path300" />
        </g>
        <g
           id="g302"
           transform="translate(555.6309,884.834)">
          <path
             d="m 0,0 c -0.613,-2.157 -2.236,-4.507 -5.481,-9.208 -2.657,-3.847 -4.551,-5.879 -6.316,-9.924 -0.974,-2.232 -1.509,-4.163 -1.805,-5.413 -0.523,-0.317 -5.408,-3.16 -10.826,-0.903 -4.253,1.773 -5.96,5.49 -6.315,6.316 0.244,0.621 0.583,1.553 0.902,2.706 1.229,4.452 1.007,8.088 0.902,9.925 -0.487,8.561 -0.731,12.842 -0.486,13.857 1.737,7.201 11.706,15.556 20.463,12.456 C -1.122,17.037 1.84,6.467 0,0"
             style="fill:#000000;fill-opacity:1;fill-rule:nonzero;stroke:none"
             id="path304" />
        </g>
        <g
           id="g306"
           transform="translate(555.6309,884.834)">
          <path
             d="m 0,0 c -0.613,-2.157 -2.236,-4.507 -5.481,-9.208 -2.657,-3.847 -4.551,-5.879 -6.316,-9.924 -0.974,-2.232 -1.509,-4.163 -1.805,-5.413 -0.523,-0.317 -5.408,-3.16 -10.826,-0.903 -4.253,1.773 -5.96,5.49 -6.315,6.316 0.244,0.621 0.583,1.553 0.902,2.706 1.229,4.452 1.007,8.088 0.902,9.925 -0.487,8.561 -0.731,12.842 -0.486,13.857 1.737,7.201 11.706,15.556 20.463,12.456 C -1.122,17.037 1.84,6.467 0,0 Z"
             style="fill:none;stroke:#000000;stroke-width:0.902;stroke-linecap:butt;stroke-linejoin:miter;stroke-miterlimit:10;stroke-dasharray:none;stroke-opacity:1"
             id="path308" />
        </g>
        <g
           id="g310"
           transform="translate(796.9014,579.2529)">
          <path
             d="m 0,0 c -21.479,29.594 -59.529,33.789 -129.015,40.599 -91.116,8.93 -127.141,-3.763 -151.569,24.359 -5.681,6.541 -13.11,22.104 -27.969,53.23 -14.124,29.59 -18.303,43.145 -34.283,55.035 -4.778,3.554 -6.16,3.54 -12.104,5.953 -6.314,2.564 -11.497,5.621 -19.474,9.384 -8.37,3.949 -15.218,5.634 -21.652,7.218 -8.648,2.128 -21.592,4.344 -37.892,3.608 1.867,-3.332 5.701,-9.064 12.63,-13.532 3.668,-2.366 7.178,-3.715 9.924,-4.512 -4.666,-1.283 -11.457,-3.781 -18.044,-9.022 -9.647,-7.674 -13.28,-16.797 -18.044,-27.066 -6.626,-14.282 -15.102,-27.632 -22.555,-41.501 -14.145,-26.323 -21.974,-41.437 -19.304,-56.746 0.218,-1.248 0.636,-2.448 1.26,-3.701 1.966,-3.947 9.074,-14.64 39.473,-16.226 2.16,5.699 6.555,14.254 12.404,22.992 5.581,8.337 10.316,13.597 13.533,17.142 5.318,5.859 8.071,8.848 12.631,11.729 5.99,3.784 11.787,5.4 16.69,6.766 9.239,2.575 11.424,1.474 16.24,4.511 2,1.261 6.532,4.204 9.022,9.925 3.731,8.57 0.036,16.844 -0.902,18.946 -3.376,7.56 -9.381,11.325 -11.729,12.63 2.866,-0.922 9.032,-3.362 13.984,-9.472 2.113,-2.607 7.689,-10.428 6.316,-20.751 -0.877,-6.586 -4.155,-10.986 -5.413,-12.631 -0.654,-0.854 -6.608,-8.433 -16.24,-10.826 -2.7,-0.671 -5.727,-0.944 -10.827,-2.707 -2.541,-0.878 -4.588,-1.778 -5.422,-2.154 -2.122,-0.954 -3.877,-1.882 -5.342,-2.709 0.13,-0.033 0.261,-0.06 0.389,-0.099 5.983,-1.821 8.148,-10.838 9.022,-14.435 5.242,-21.581 -10.732,-37.871 -27.066,-73.981 0,0 -7.607,-16.855 -14.435,-38.795 -18.978,-60.977 41.956,-139.107 54.132,-154.276 -13.773,71.115 6.201,96.096 15.338,104.655 46.774,43.819 171.797,-3.38 248.105,-54.132 59.095,-39.304 95.996,-85.41 111.873,-74.883 14.592,9.676 -13.623,50.584 5.413,110.971 7.533,23.899 15.949,30.493 18.044,54.133 C 17.418,-67.252 20.417,-28.131 0,0"
             style="fill:#000000;fill-opacity:1;fill-rule:nonzero;stroke:none"
             id="path312" />
        </g>
        <g
           id="g314">
          <g
             id="g316" />
          <g
             id="g392"
             mask="url(#mask326)">
            <g
               id="g394" />
            <g
               id="g424">
              <g
                 clip-path="url(#clipPath398)"
                 id="g422">
                <g
                   id="g418">
                  <g
                     id="g416">
                    <g
                       id="g414">
                      <g
                         id="g412">
                        <path
                           d="M 995.963,325.901 H 258.371 v 601.68 h 737.592 z"
                           style="fill:url(#linearGradient408);stroke:none"
                           id="path410" />
                      </g>
                    </g>
                  </g>
                </g>
                <path
                   d="M 995.963,325.901 H 258.371 v 601.68 h 737.592 z"
                   style="fill:none;stroke:#00b3b3;stroke-width:0.717;stroke-linecap:butt;stroke-linejoin:miter;stroke-miterlimit:10;stroke-dasharray:none;stroke-opacity:1"
                   id="path420" />
              </g>
            </g>
          </g>
        </g>
      </g>
    </g>
  </g>
</svg>
